<svg width="15" height="13" viewBox="0 0 15 13" fill="none" xmlns="http://www.w3.org/2000/svg">
    <path d="M7.93671 0.901745C7.87269 0.715295 7.69732 0.590088 7.50018 0.590088C7.30305 0.590088 7.12768 0.715295 7.06366 0.901745L5.71794 4.8211H1.34634C1.14417 4.8211 0.965539 4.95266 0.905572 5.14573C0.845605 5.3388 0.918265 5.54842 1.08485 5.66295L4.59925 8.07924L3.26037 11.9787C3.1957 12.167 3.25914 12.3756 3.41772 12.4961C3.57631 12.6165 3.79428 12.6217 3.95838 12.5089L7.50018 10.0737L11.042 12.5089C11.2061 12.6217 11.4241 12.6165 11.5826 12.4961C11.7412 12.3756 11.8047 12.167 11.74 11.9787L10.4011 8.07924L13.9155 5.66295C14.0821 5.54842 14.1548 5.3388 14.0948 5.14573C14.0348 4.95266 13.8562 4.8211 13.654 4.8211H9.28243L7.93671 0.901745Z" fill="#389E0D"/>
</svg>
