<svg width="12" height="15" viewBox="0 0 12 15" fill="none" xmlns="http://www.w3.org/2000/svg">
    <path d="M11.614 8.32756C11.3622 7.81757 11.0098 7.37338 10.5902 7.02791C10.1538 6.68243 9.65035 6.41921 9.0965 6.2547C8.54266 6.09019 7.93846 6.00793 7.3007 6.00793H3.99441V4.70828H7.92168C8.29091 4.70828 8.49231 4.51087 8.49231 4.14894V3.29348C8.49231 2.93155 8.29091 2.73414 7.92168 2.73414H3.99441V0.908049C3.99441 0.727086 3.92727 0.579025 3.79301 0.447415C3.65874 0.315805 3.50769 0.25 3.32308 0.25H2.55105C2.36643 0.25 2.21538 0.315805 2.08112 0.447415C1.94685 0.579025 1.87972 0.727086 1.87972 0.908049V2.75059H0.570629C0.201399 2.75059 0 2.948 0 3.30993V4.16539C0 4.52732 0.201399 4.72474 0.570629 4.72474H1.87972V6.02438H0.570629C0.201399 6.02438 0 6.2218 0 6.58372V7.43919C0 7.80112 0.201399 7.99853 0.570629 7.99853H1.87972V13.5919C1.87972 13.7729 1.94685 13.921 2.08112 14.0526C2.21538 14.1842 2.36643 14.25 2.55105 14.25H7.3007C7.93846 14.25 8.52587 14.1677 9.07972 14.0197C9.65035 13.8552 10.1538 13.6084 10.5734 13.2794C11.0098 12.9504 11.3455 12.5226 11.614 12.0126C11.8657 11.5026 12 10.8939 12 10.1865C12 9.47914 11.8657 8.87045 11.614 8.36046V8.32756ZM9.88531 10.1536C9.88531 10.8939 9.65035 11.4204 9.1972 11.7494C8.72727 12.0784 8.05594 12.2594 7.18322 12.2594H3.96084V7.98208H7.18322C8.05594 7.98208 8.72727 8.16304 9.18042 8.52497C9.63357 8.87045 9.86853 9.42979 9.86853 10.1536H9.88531Z" fill="white"/>
</svg>
