<svg width="140" height="18" viewBox="0 0 140 18" fill="none" xmlns="http://www.w3.org/2000/svg">
    <path d="M8.23066 10.0384C8.21933 9.29067 8.52541 8.67885 9.14891 8.20299L9.26795 8.10102C9.49467 7.91975 9.65905 7.77246 9.76108 7.65916C9.93113 7.46655 10.0218 7.27394 10.0332 7.08133C10.0445 6.87739 9.98781 6.70178 9.86311 6.55449C9.73841 6.4072 9.55135 6.3109 9.30195 6.26558C9.01854 6.20893 8.76914 6.21459 8.55375 6.28257C8.31569 6.36188 8.1173 6.5205 7.95859 6.75843C7.84523 6.93971 7.72053 7.05301 7.58449 7.09833C7.44845 7.14365 7.29541 7.12665 7.12536 7.04734C6.96665 6.96803 6.85896 6.84907 6.80228 6.69045C6.7456 6.53183 6.7456 6.36188 6.80228 6.18061C6.92698 5.72741 7.22172 5.39884 7.68652 5.1949C8.67278 4.74171 9.63071 4.77003 10.5603 5.27988C11.0024 5.51781 11.2915 5.85204 11.4275 6.28257C11.5749 6.71311 11.5409 7.16064 11.3255 7.62517C11.1101 8.08969 10.7587 8.5089 10.2712 8.88279C10.0332 9.06407 9.85744 9.25668 9.74407 9.46061C9.60804 9.68721 9.54569 9.9478 9.55702 10.2424C9.56836 10.4803 9.51735 10.6446 9.40398 10.7352C9.30195 10.8145 9.1149 10.8542 8.84283 10.8542C8.62744 10.8429 8.4744 10.7919 8.38371 10.7012C8.29301 10.5993 8.24767 10.435 8.24767 10.2084C8.23633 10.1744 8.23066 10.1177 8.23066 10.0384ZM9.77808 12.5367C9.77808 12.7859 9.68739 12.9955 9.50601 13.1655C9.33596 13.3354 9.12624 13.4204 8.87684 13.4204C8.63877 13.4204 8.43472 13.3354 8.26467 13.1655C8.09463 12.9842 8.0096 12.7689 8.0096 12.5197C8.0096 12.2704 8.09463 12.0608 8.26467 11.8909C8.43472 11.7096 8.64444 11.6246 8.89384 11.636C9.14324 11.636 9.35297 11.7266 9.52301 11.9079C9.69306 12.0778 9.77808 12.2874 9.77808 12.5367Z" fill="#5F6062"/>
    <path d="M0.897394 7.52898C1.09833 6.39032 1.51696 5.33539 2.15326 4.36418C2.77841 3.43763 3.55984 2.66178 4.49756 2.03664C5.43527 1.41149 6.45113 0.99287 7.54513 0.780767C8.68379 0.557501 9.81686 0.574246 10.9444 0.831001C12.217 1.12125 13.3445 1.66267 14.3268 2.45526C15.3092 3.23669 16.0739 4.18557 16.6209 5.3019C17.1902 6.45172 17.4805 7.69084 17.4916 9.01928C17.5028 10.1356 17.5028 11.8101 17.4916 14.0428V16.5545C17.4916 16.8447 17.4302 17.0513 17.3074 17.1741C17.1735 17.308 16.9614 17.375 16.6711 17.375H9.25312C8.63914 17.375 8.1033 17.3303 7.64561 17.241C6.13856 16.9508 4.81571 16.3201 3.67705 15.3489C2.57189 14.4111 1.76813 13.2613 1.26578 11.8994C0.752272 10.4928 0.629475 9.03602 0.897394 7.52898ZM8.3154 16.0019C8.84008 16.0577 9.61593 16.0745 10.6429 16.0521C11.2793 16.041 11.7425 16.041 12.0328 16.0521H13.4561C14.5501 16.041 15.3539 16.041 15.8674 16.0521C15.9902 16.0521 16.0739 16.0298 16.1185 15.9852C16.152 15.9405 16.1688 15.8568 16.1688 15.734V8.98579C16.1688 7.8248 15.8897 6.72522 15.3315 5.68703C14.7957 4.68234 14.0589 3.85625 13.1212 3.20878C12.15 2.53899 11.0895 2.13711 9.93966 2.00315C8.65588 1.86919 7.4335 2.05896 6.27252 2.57248C5.14503 3.06366 4.21289 3.80602 3.47612 4.79955C2.71701 5.80425 2.2649 6.9429 2.11978 8.21552C1.97465 9.47697 2.15885 10.6882 2.67236 11.8492C3.17471 12.9767 3.92265 13.9088 4.91618 14.6456C5.92088 15.4158 7.05395 15.868 8.3154 16.0019Z" fill="#5F6062"/>
    <rect x="23.5" y="0.625" width="116.5" height="17.25" rx="0.796875" fill="#5F6062"/>
    <path d="M28.6638 12.75V5.20625H33.1794V6.38562H30.0344V8.36187H32.5738V9.54125H30.0344V11.5706H33.3494V12.75H28.6638ZM37.5713 12.75V5.20625H38.9419V11.5706H42.2038V12.75H37.5713ZM46.1365 12.75V5.20625H47.5071V12.75H46.1365ZM53.9117 12.75V6.38562H51.436V5.20625H57.7473V6.38562H55.2717V12.75H53.9117ZM61.6793 12.75V5.20625H66.1949V6.38562H63.0499V8.36187H65.5893V9.54125H63.0499V11.5706H66.3649V12.75H61.6793ZM75.57 11.8469L76.3137 10.8162C76.5616 11.0358 76.8521 11.2235 77.185 11.3794C77.525 11.5352 77.8579 11.6131 78.1837 11.6131C78.5237 11.6131 78.7929 11.5352 78.9912 11.3794C79.1896 11.2165 79.2887 11.0075 79.2887 10.7525C79.2887 10.4904 79.1683 10.2637 78.9275 10.0725C78.6866 9.88125 78.3927 9.71479 78.0456 9.57312C77.7056 9.43146 77.3621 9.27562 77.015 9.10562C76.6679 8.93562 76.3739 8.69479 76.1331 8.38312C75.8923 8.07146 75.7718 7.69958 75.7718 7.2675C75.7718 6.61583 76.0127 6.08812 76.4943 5.68437C76.9831 5.28062 77.5993 5.07875 78.3431 5.07875C79.2285 5.07875 79.9652 5.34792 80.5531 5.88625L79.9475 7.00187C79.735 6.81062 79.4764 6.65479 79.1718 6.53437C78.8743 6.40687 78.5804 6.34312 78.29 6.34312C77.9429 6.34312 77.6631 6.42104 77.4506 6.57687C77.2452 6.73271 77.1425 6.94167 77.1425 7.20375C77.1425 7.45875 77.2629 7.67833 77.5037 7.8625C77.7446 8.04667 78.035 8.20604 78.375 8.34062C78.7221 8.47521 79.0691 8.6275 79.4162 8.7975C79.7633 8.96042 80.0573 9.19771 80.2981 9.50937C80.5389 9.82104 80.6593 10.2 80.6593 10.6462C80.6593 11.2837 80.4362 11.815 79.99 12.24C79.5437 12.665 78.931 12.8775 78.1518 12.8775C77.6702 12.8775 77.2027 12.789 76.7493 12.6119C76.296 12.4348 75.9029 12.1798 75.57 11.8469ZM84.8949 12.75V5.20625H89.4105V6.38562H86.2655V8.36187H88.8049V9.54125H86.2655V11.5706H89.5805V12.75H84.8949ZM93.8025 12.75V5.20625H96.2887C96.9262 5.20625 97.4008 5.27354 97.7125 5.40812C98.1091 5.57104 98.4208 5.82958 98.6475 6.18375C98.8741 6.53792 98.9875 6.96646 98.9875 7.46937C98.9875 7.92979 98.8741 8.35125 98.6475 8.73375C98.4208 9.10917 98.1127 9.37479 97.7231 9.53062V9.55187C97.7868 9.62979 97.8683 9.76083 97.9675 9.945L99.5187 12.75H97.9781L96.4906 9.93437H95.1731V12.75H93.8025ZM95.1731 8.74437H96.4056C96.7739 8.74437 97.0643 8.63812 97.2768 8.42562C97.4893 8.20604 97.5956 7.91208 97.5956 7.54375C97.5956 7.01958 97.3973 6.67604 97.0006 6.51312C96.8093 6.42812 96.5331 6.38562 96.1718 6.38562H95.1731V8.74437ZM105.202 12.75L102.482 5.20625H103.959L105.617 10.1256L105.904 11.2306H105.925C106.024 10.7844 106.12 10.416 106.212 10.1256L107.89 5.20625H109.346L106.626 12.75H105.202ZM113.184 12.75V5.20625H114.555V12.75H113.184ZM118.813 8.94625C118.813 7.84125 119.178 6.92042 119.908 6.18375C120.637 5.44708 121.565 5.07875 122.691 5.07875C123.839 5.07875 124.767 5.42229 125.475 6.10938L124.816 7.12937C124.54 6.89562 124.214 6.70437 123.839 6.55562C123.471 6.40687 123.109 6.3325 122.755 6.3325C121.962 6.3325 121.342 6.58042 120.896 7.07625C120.45 7.57208 120.226 8.18833 120.226 8.925C120.226 9.66875 120.453 10.3062 120.906 10.8375C121.36 11.3617 121.98 11.6237 122.766 11.6237C123.573 11.6237 124.303 11.305 124.955 10.6675L125.677 11.6556C124.877 12.4702 123.889 12.8775 122.713 12.8775C121.544 12.8775 120.602 12.5056 119.886 11.7619C119.171 11.0181 118.813 10.0796 118.813 8.94625ZM129.723 12.75V5.20625H134.239V6.38562H131.094V8.36187H133.633V9.54125H131.094V11.5706H134.409V12.75H129.723Z" fill="white"/>
</svg>
