<svg width="140" height="18" viewBox="0 0 140 18" fill="none" xmlns="http://www.w3.org/2000/svg">
    <g clip-path="url(#clip0_901_6)">
        <path d="M130.471 10.4134C130.46 9.66567 130.766 9.05385 131.389 8.57799L131.508 8.47602C131.735 8.29475 131.899 8.14746 132.001 8.03416C132.172 7.84155 132.262 7.64894 132.274 7.45633C132.285 7.25239 132.228 7.07678 132.104 6.92949C131.979 6.7822 131.792 6.6859 131.542 6.64058C131.259 6.58393 131.01 6.58959 130.794 6.65757C130.556 6.73688 130.358 6.8955 130.199 7.13343C130.086 7.31471 129.961 7.42801 129.825 7.47333C129.689 7.51865 129.536 7.50165 129.366 7.42234C129.207 7.34303 129.099 7.22407 129.043 7.06545C128.986 6.90683 128.986 6.73688 129.043 6.55561C129.167 6.10241 129.462 5.77384 129.927 5.5699C130.913 5.11671 131.871 5.14503 132.801 5.65488C133.243 5.89281 133.532 6.22704 133.668 6.65757C133.815 7.08811 133.781 7.53564 133.566 8.00017C133.35 8.46469 132.999 8.8839 132.512 9.25779C132.274 9.43907 132.098 9.63168 131.984 9.83561C131.848 10.0622 131.786 10.3228 131.797 10.6174C131.809 10.8553 131.758 11.0196 131.644 11.1102C131.542 11.1895 131.355 11.2292 131.083 11.2292C130.868 11.2179 130.715 11.1669 130.624 11.0762C130.533 10.9743 130.488 10.81 130.488 10.5834C130.477 10.5494 130.471 10.4927 130.471 10.4134ZM132.018 12.9117C132.018 13.1609 131.928 13.3705 131.746 13.5405C131.576 13.7104 131.367 13.7954 131.117 13.7954C130.879 13.7954 130.675 13.7104 130.505 13.5405C130.335 13.3592 130.25 13.1439 130.25 12.8947C130.25 12.6454 130.335 12.4358 130.505 12.2659C130.675 12.0846 130.885 11.9996 131.134 12.011C131.384 12.011 131.593 12.1016 131.763 12.2829C131.933 12.4528 132.018 12.6624 132.018 12.9117Z" fill="#5F6062"/>
        <path d="M139.603 7.90398C139.402 6.76532 138.983 5.71039 138.347 4.73918C137.722 3.81263 136.94 3.03678 136.002 2.41164C135.065 1.78649 134.049 1.36787 132.955 1.15577C131.816 0.932501 130.683 0.949246 129.556 1.206C128.283 1.49625 127.155 2.03767 126.173 2.83026C125.191 3.61169 124.426 4.56057 123.879 5.6769C123.31 6.82672 123.019 8.06584 123.008 9.39428C122.997 10.5106 122.997 12.1851 123.008 14.4178V16.9295C123.008 17.2197 123.07 17.4263 123.193 17.5491C123.327 17.683 123.539 17.75 123.829 17.75H131.247C131.861 17.75 132.397 17.7053 132.854 17.616C134.361 17.3258 135.684 16.6951 136.823 15.7239C137.928 14.7861 138.732 13.6363 139.234 12.2744C139.748 10.8678 139.871 9.41102 139.603 7.90398ZM132.185 16.3769C131.66 16.4327 130.884 16.4495 129.857 16.4271C129.221 16.416 128.758 16.416 128.467 16.4271H127.044C125.95 16.416 125.146 16.416 124.633 16.4271C124.51 16.4271 124.426 16.4048 124.382 16.3602C124.348 16.3155 124.331 16.2318 124.331 16.109V9.36079C124.331 8.1998 124.61 7.10022 125.168 6.06203C125.704 5.05734 126.441 4.23125 127.379 3.58378C128.35 2.91399 129.41 2.51211 130.56 2.37815C131.844 2.24419 133.066 2.43396 134.227 2.94748C135.355 3.43866 136.287 4.18102 137.024 5.17455C137.783 6.17925 138.235 7.3179 138.38 8.59052C138.525 9.85197 138.341 11.0632 137.828 12.2242C137.325 13.3517 136.577 14.2838 135.584 15.0206C134.579 15.7908 133.446 16.243 132.185 16.3769Z" fill="#5F6062"/>
        <path d="M116.203 0.625H1.29688C0.856773 0.625 0.5 0.981773 0.5 1.42188V17.0781C0.5 17.5182 0.856773 17.875 1.29688 17.875H116.203C116.643 17.875 117 17.5182 117 17.0781V1.42188C117 0.981773 116.643 0.625 116.203 0.625Z" fill="#5F6062"/>
        <path d="M5.6638 12.75V5.20624H10.1794V6.38561H7.0344V8.36186H9.5738V9.54124H7.0344V11.5706H10.3494V12.75H5.6638ZM14.5713 12.75V5.20624H15.9419V11.5706H19.2038V12.75H14.5713ZM23.1365 12.75V5.20624H24.5071V12.75H23.1365ZM30.9117 12.75V6.38561H28.436V5.20624H34.7473V6.38561H32.2717V12.75H30.9117ZM38.6793 12.75V5.20624H43.1949V6.38561H40.0499V8.36186H42.5893V9.54124H40.0499V11.5706H43.3649V12.75H38.6793ZM52.57 11.8469L53.3137 10.8162C53.5616 11.0358 53.8521 11.2235 54.185 11.3794C54.525 11.5352 54.8579 11.6131 55.1837 11.6131C55.5237 11.6131 55.7929 11.5352 55.9912 11.3794C56.1896 11.2165 56.2887 11.0075 56.2887 10.7525C56.2887 10.4904 56.1683 10.2637 55.9275 10.0725C55.6866 9.88124 55.3927 9.71478 55.0456 9.57311C54.7056 9.43145 54.3621 9.27561 54.015 9.10561C53.6679 8.93561 53.3739 8.69477 53.1331 8.3831C52.8923 8.07144 52.7718 7.69957 52.7718 7.26749C52.7718 6.61582 53.0127 6.08811 53.4943 5.68436C53.9831 5.28061 54.5993 5.07874 55.3431 5.07874C56.2285 5.07874 56.9652 5.34791 57.5531 5.88624L56.9475 7.00186C56.735 6.81061 56.4764 6.65478 56.1718 6.53436C55.8743 6.40686 55.5804 6.34311 55.29 6.34311C54.9429 6.34311 54.6631 6.42103 54.4506 6.57686C54.2452 6.7327 54.1425 6.94166 54.1425 7.20374C54.1425 7.45874 54.2629 7.67832 54.5037 7.86249C54.7446 8.04666 55.035 8.20603 55.375 8.34061C55.7221 8.4752 56.0691 8.62748 56.4162 8.79748C56.7633 8.9604 57.0573 9.1977 57.2981 9.50936C57.5389 9.82103 57.6593 10.2 57.6593 10.6462C57.6593 11.2837 57.4362 11.815 56.99 12.24C56.5437 12.665 55.931 12.8775 55.1518 12.8775C54.6702 12.8775 54.2027 12.789 53.7493 12.6119C53.296 12.4348 52.9029 12.1798 52.57 11.8469ZM61.8949 12.75V5.20624H66.4105V6.38561H63.2655V8.36186H65.8049V9.54124H63.2655V11.5706H66.5805V12.75H61.8949ZM70.8025 12.75V5.20624H73.2887C73.9262 5.20624 74.4008 5.27353 74.7125 5.40811C75.1091 5.57103 75.4208 5.82957 75.6475 6.18374C75.8741 6.53791 75.9875 6.96645 75.9875 7.46936C75.9875 7.92978 75.8741 8.35124 75.6475 8.73374C75.4208 9.10916 75.1127 9.37477 74.7231 9.5306V9.55186C74.7868 9.62978 74.8683 9.76081 74.9675 9.94498L76.5187 12.75H74.9781L73.4906 9.93436H72.1731V12.75H70.8025ZM72.1731 8.74436H73.4056C73.7739 8.74436 74.0643 8.63811 74.2768 8.42561C74.4893 8.20603 74.5956 7.91207 74.5956 7.54374C74.5956 7.01957 74.3973 6.67603 74.0006 6.51311C73.8093 6.42811 73.5331 6.38561 73.1718 6.38561H72.1731V8.74436ZM82.202 12.75L79.482 5.20624H80.959L82.617 10.1256L82.904 11.2306H82.925C83.024 10.7844 83.12 10.416 83.212 10.1256L84.89 5.20624H86.346L83.626 12.75H82.202ZM90.184 12.75V5.20624H91.555V12.75H90.184ZM95.813 8.94624C95.813 7.84124 96.178 6.92041 96.908 6.18374C97.637 5.44707 98.565 5.07874 99.691 5.07874C100.839 5.07874 101.767 5.42228 102.475 6.10936L101.816 7.12936C101.54 6.89561 101.214 6.70436 100.839 6.55561C100.471 6.40686 100.109 6.33249 99.755 6.33249C98.962 6.33249 98.342 6.58041 97.896 7.07624C97.45 7.57207 97.226 8.18832 97.226 8.92499C97.226 9.66874 97.453 10.3062 97.906 10.8375C98.36 11.3617 98.98 11.6237 99.766 11.6237C100.573 11.6237 101.303 11.305 101.955 10.6675L102.677 11.6556C101.877 12.4702 100.889 12.8775 99.713 12.8775C98.544 12.8775 97.602 12.5056 96.886 11.7619C96.171 11.0181 95.813 10.0796 95.813 8.94624ZM106.723 12.75V5.20624H111.239V6.38561H108.094V8.36186H110.633V9.54124H108.094V11.5706H111.409V12.75H106.723Z" fill="white"/>
    </g>
    <defs>
        <clipPath id="clip0_901_6">
            <rect width="140" height="18" fill="white"/>
        </clipPath>
    </defs>
</svg>
