<svg width="24" height="24" viewBox="0 0 24 24" fill="none" xmlns="http://www.w3.org/2000/svg">
<path d="M21.768 11.2737H18.5605C18.1352 11.2737 17.7273 11.4427 17.4265 11.7435C17.1257 12.0442 16.9568 12.4522 16.9568 12.8775V16.8869C16.9568 17.3122 17.1257 17.7201 17.4265 18.0209C17.7273 18.3217 18.1352 18.4906 18.5605 18.4906H20.1643C20.5896 18.4906 20.9975 18.3217 21.2983 18.0209C21.5991 17.7201 21.768 17.3122 21.768 16.8869V11.2737ZM21.768 11.2737C21.7681 10.0033 21.5165 8.74546 21.028 7.57274C20.5394 6.40003 19.8234 5.33567 18.9214 4.44108C18.0193 3.54649 16.9491 2.83938 15.7723 2.36054C14.5956 1.88171 13.3357 1.64063 12.0653 1.65121C10.7958 1.64196 9.53695 1.88402 8.36138 2.36345C7.18581 2.84288 6.11673 3.5502 5.21575 4.44466C4.31477 5.33912 3.5997 6.40302 3.11174 7.57508C2.62379 8.74714 2.37259 10.0042 2.37262 11.2737V16.8869C2.37262 17.3122 2.54159 17.7201 2.84235 18.0209C3.14311 18.3217 3.55103 18.4906 3.97637 18.4906H5.58013C6.00547 18.4906 6.41339 18.3217 6.71415 18.0209C7.01492 17.7201 7.18388 17.3122 7.18388 16.8869V12.8775C7.18388 12.4522 7.01492 12.0442 6.71415 11.7435C6.41339 11.4427 6.00547 11.2737 5.58013 11.2737H2.37262" stroke="white" stroke-linecap="round" stroke-linejoin="round"/>
<path d="M21.768 16.8868V19.2925C21.768 20.1432 21.4301 20.959 20.8285 21.5605C20.227 22.162 19.4112 22.5 18.5605 22.5H12.797" stroke="white" stroke-linecap="round" stroke-linejoin="round"/>
</svg>
