<svg width="24" height="23" viewBox="0 0 24 23" fill="none" xmlns="http://www.w3.org/2000/svg">
<path d="M3.31409 19.6185C1.98321 19.4757 1.31988 18.5436 1.18172 17.2183C0.952883 15.0231 1.35479 15.8314 3.10114 15.1623C6.16632 13.9878 8.08337 12.4485 11.6223 13.0629C14.0965 13.4925 16.1612 14.9679 18.4794 15.7028C19.5947 16.0564 21.8762 16.0516 22.5672 17.2366C23.4768 18.7962 22.2182 19.4294 20.8846 19.6141" stroke="white" stroke-miterlimit="10" stroke-linecap="round" stroke-linejoin="round"/>
<path d="M8.17731 19.8203L16.0159 19.7593" stroke="white" stroke-miterlimit="10" stroke-linecap="round" stroke-linejoin="round"/>
<path d="M21.8114 17.7018C21.7321 17.6999 21.6301 17.6932 21.5253 17.6836C20.7372 17.6119 20.5694 17.4319 20.3581 17.0291" stroke="white" stroke-miterlimit="10" stroke-linecap="round" stroke-linejoin="round"/>
<path d="M7.7484 19.3524C7.7484 18.4409 7.00943 17.7019 6.09783 17.7019C5.18628 17.7019 4.44727 18.4409 4.44727 19.3524C4.44727 20.264 5.18628 21.003 6.09783 21.003C7.00943 21.003 7.7484 20.264 7.7484 19.3524Z" stroke="white" stroke-miterlimit="10" stroke-linecap="round" stroke-linejoin="round"/>
<path d="M19.7353 19.3524C19.7353 18.4409 18.9963 17.7019 18.0847 17.7019C17.1731 17.7019 16.4341 18.4409 16.4341 19.3524C16.4341 20.264 17.1731 21.003 18.0847 21.003C18.9963 21.003 19.7353 20.264 19.7353 19.3524Z" stroke="white" stroke-miterlimit="10" stroke-linecap="round" stroke-linejoin="round"/>
<path d="M5.83774 15.8738L15.2447 16.3714C15.4049 16.382 15.4586 16.1456 15.3116 16.0763C15.0091 15.9337 14.6788 15.7758 14.4536 15.6625C13.3741 15.1195 12.5322 14.7742 11.2213 14.461C9.23144 13.9855 7.51768 15.0267 5.83774 15.8738Z" stroke="white" stroke-miterlimit="10" stroke-linecap="round" stroke-linejoin="round"/>
<path d="M2.073 21.9612H21.651" stroke="white" stroke-miterlimit="10" stroke-linecap="round" stroke-linejoin="round"/>
<path d="M15.6828 1.12431H6.52044C5.72847 1.12431 5.08643 1.76636 5.08643 2.55833V7.93836C5.08643 8.73033 5.72847 9.37237 6.52044 9.37237H9.51067C9.60717 9.37237 9.68526 9.45056 9.68526 9.54692V11.4185C9.68526 11.574 9.87321 11.6518 9.98327 11.5418L12.1016 9.42346C12.1343 9.39078 12.1787 9.37237 12.2249 9.37237H15.6828C16.4748 9.37237 17.1167 8.73033 17.1167 7.93836V2.55833C17.1167 1.76636 16.4748 1.12431 15.6828 1.12431Z" stroke="white" stroke-miterlimit="10" stroke-linecap="round" stroke-linejoin="round"/>
<path d="M13.187 5.3343H14.1975C14.7481 5.3343 15.1984 4.88395 15.1984 4.33345C15.1984 3.7829 14.7481 3.33245 14.1975 3.33245H13.139V7.16394" stroke="white" stroke-miterlimit="10" stroke-linecap="round" stroke-linejoin="round"/>
<path d="M11.4667 3.33245V7.16394" stroke="white" stroke-miterlimit="10" stroke-linecap="round" stroke-linejoin="round"/>
<path d="M7.07568 3.33245L8.53583 7.16394L9.90982 3.33245" stroke="white" stroke-miterlimit="10" stroke-linecap="round" stroke-linejoin="round"/>
</svg>
