<svg width="24" height="26" viewBox="0 0 24 26" fill="none" xmlns="http://www.w3.org/2000/svg">
<path d="M6.23576 10.2666C5.95845 10.3402 5.68728 10.4286 5.423 10.5325C2.88284 11.5782 1.13092 13.7881 1.13092 16.3453C1.13092 18.4809 2.35198 20.3738 4.23412 21.5489C4.10159 21.7869 3.94379 22.0357 3.75535 22.2791C3.03451 23.2116 2.38951 23.6279 2.38951 23.6279C2.38951 23.6279 3.46042 23.7465 4.52138 23.3387C5.15642 23.0953 5.71715 22.7744 6.20129 22.4334C6.9949 22.6713 7.84825 22.8016 8.73762 22.8016C12.2047 22.8016 15.1302 20.8327 16.0463 18.1406C16.1045 17.8902 16.149 17.6453 16.1804 17.405" stroke="white" stroke-miterlimit="10" stroke-linecap="round"/>
<path d="M9.34674 15.2112C9.22672 15.3262 9.0443 15.4051 8.79947 15.4478C8.55464 15.4906 8.38502 15.5407 8.29061 15.5974C8.13939 15.6861 8.06258 15.8464 8.06098 16.0781L8.06018 16.0789L8.05377 16.8604C8.05137 17.0863 8.11858 17.2696 8.2554 17.4126C8.39142 17.5555 8.56664 17.6279 8.77947 17.6295C9.0051 17.632 9.18432 17.5629 9.31714 17.4224C9.44995 17.2819 9.51796 17.0995 9.51956 16.8743L9.52116 16.6812C10.0236 16.5826 10.6413 15.9449 10.6413 15.4921M8.84908 14.0682C8.568 14.1939 8.30421 14.2095 8.07938 14.5004C7.85455 14.7913 7.62012 14.9351 7.37529 14.9335C7.18726 14.9318 7.02804 14.8595 6.89763 14.7165C6.76721 14.5735 6.7032 14.3993 6.7048 14.1939C6.7096 13.6795 6.95363 13.2571 7.4393 12.9268M8.77707 18.0436C8.99629 18.0453 9.18672 18.1307 9.34834 18.3C9.50996 18.4685 9.58917 18.669 9.58757 18.9007C9.58597 19.1324 9.50276 19.3313 9.33794 19.4964C9.17392 19.6624 8.98189 19.7438 8.76267 19.7421C8.53704 19.7405 8.34501 19.6567 8.18739 19.4907C8.02897 19.3255 7.95136 19.1234 7.95296 18.8851C7.95456 18.6599 8.03617 18.4627 8.19779 18.2943C8.35861 18.125 8.55144 18.042 8.77707 18.0436Z" stroke="white" stroke-miterlimit="10"/>
<path d="M20.1551 16.0824C19.9307 15.7959 19.7459 15.5023 19.5952 15.2261C21.5811 13.993 22.869 12.0159 22.869 9.78692C22.869 6.05016 19.2511 3.02057 14.7869 3.02057C10.3227 3.02057 6.70477 6.05016 6.70477 9.78692C6.70477 13.5237 10.3227 16.5533 14.7869 16.5533C15.7227 16.5533 16.622 16.4198 17.4579 16.1742C17.9948 16.5572 18.6229 16.9206 19.3407 17.1929C20.4684 17.6199 21.6057 17.4959 21.6057 17.4959C21.6057 17.4959 20.9205 17.0595 20.1544 16.0824H20.1551Z" stroke="white" stroke-miterlimit="10" stroke-linecap="round"/>
<path d="M13.7549 0.999977C10.7972 1.37161 8.23946 2.7427 6.91287 4.66852" stroke="white" stroke-miterlimit="10" stroke-linecap="round"/>
<path d="M8.64986 25C12.0516 24.7327 15.0405 23.1919 16.6446 20.8774" stroke="white" stroke-miterlimit="10" stroke-linecap="round"/>
<path d="M15.1195 6.58148L15.9511 8.34365C16.0056 8.45838 16.1101 8.5383 16.2311 8.5565L18.0912 8.83898C18.3962 8.88567 18.518 9.27735 18.297 9.50207L16.9516 10.8741C16.8638 10.9636 16.8237 11.0925 16.8449 11.2183L17.1627 13.1554C17.2149 13.4727 16.8956 13.7156 16.6231 13.5653L14.9598 12.6506C14.8516 12.5912 14.7222 12.5912 14.614 12.6506L12.9507 13.5653C12.6775 13.7156 12.3589 13.4727 12.4111 13.1554L12.7289 11.2183C12.7494 11.0925 12.7093 10.9636 12.6222 10.8741L11.2768 9.50207C11.0558 9.27735 11.1776 8.88488 11.4826 8.83898L13.3427 8.5565C13.4637 8.5383 13.5682 8.45838 13.6227 8.34365L14.4543 6.58148C14.5905 6.29266 14.9848 6.29266 15.121 6.58148H15.1195Z" stroke="white" stroke-miterlimit="10" stroke-linecap="round"/>
</svg>
