<svg width="30" height="31" viewBox="0 0 30 31" fill="none" xmlns="http://www.w3.org/2000/svg">
    <path d="M29.4113 17.5113L28.3494 19.3343C28.0839 19.7843 27.8992 20.2805 27.8068 20.7997L27.4375 22.8766C27.299 23.6612 26.9527 24.3881 26.4332 24.9996C25.9138 25.6112 25.2443 26.0727 24.494 26.3381L22.4971 27.065C22.0008 27.2496 21.5391 27.515 21.135 27.8496L19.496 29.1996C18.8842 29.7073 18.1454 30.0419 17.3605 30.1803C16.5756 30.3188 15.7561 30.2496 15.0058 29.9842L13.0089 29.2688C12.5125 29.0957 11.9815 29.0034 11.4506 28.9919H9.31512C8.50712 28.9919 7.7222 28.7727 7.02963 28.3804C6.33705 27.9881 5.75991 27.4111 5.35591 26.7304L4.29396 24.9073C4.02847 24.4573 3.68219 24.0535 3.27818 23.7189L1.65063 22.3574C1.03886 21.8497 0.565602 21.1805 0.288573 20.442C0 19.692 -0.0692574 18.8843 0.0692574 18.0997L0.43863 16.0228C0.530973 15.5036 0.530973 14.9729 0.43863 14.4652L0.0692574 12.3883C-0.0692574 11.6037 0 10.796 0.27703 10.0576C0.554059 9.30756 1.01578 8.64988 1.63909 8.14219L3.26664 6.78067C3.67064 6.44606 4.01693 6.04222 4.28242 5.59223L5.34436 3.76918C5.74836 3.08842 6.32551 2.51151 7.01808 2.1192C7.71066 1.7269 8.49558 1.50767 9.30358 1.50767H11.439C11.97 1.50767 12.4894 1.41537 12.9973 1.24229L14.9942 0.526919C15.7445 0.25 16.5525 0.18077 17.349 0.31923C18.1339 0.457689 18.8726 0.7923 19.4844 1.29998L21.1235 2.6615C21.5275 2.99611 21.9892 3.26149 22.4856 3.43457L24.4825 4.16148C25.2328 4.4384 25.9023 4.89993 26.4217 5.49992C26.9411 6.11145 27.2874 6.83837 27.4259 7.62297L27.7953 9.69986C27.8876 10.2191 28.0723 10.7152 28.3378 11.1652L29.3998 12.9883C29.7922 13.6806 30 14.4536 30 15.2498C30 16.0459 29.7922 16.819 29.3998 17.5113H29.4113Z" fill="url(#paint0_linear_184_8629)"/>
    <path d="M13.0416 13.4201C12.4725 13.9986 11.7849 14.2878 10.9787 14.2878C10.1726 14.2878 9.48495 13.9986 8.91589 13.4201C8.35868 12.8416 8.08008 12.1374 8.08008 11.3074C8.08008 10.4899 8.35868 9.79199 8.91589 9.2135C9.48495 8.62244 10.1726 8.3269 10.9787 8.3269C11.7731 8.3269 12.4547 8.62244 13.0238 9.2135C13.6047 9.79199 13.8952 10.4899 13.8952 11.3074C13.8952 12.1374 13.6106 12.8416 13.0416 13.4201ZM8.52466 21.9465L18.2165 8.55327H20.2971L10.6053 21.9465H8.52466ZM10.1429 12.194C10.3682 12.4329 10.6468 12.5524 10.9787 12.5524C11.3107 12.5524 11.5893 12.4329 11.8145 12.194C12.0517 11.955 12.1702 11.6595 12.1702 11.3074C12.1702 10.9678 12.0517 10.6786 11.8145 10.4396C11.5893 10.1881 11.3107 10.0624 10.9787 10.0624C10.6468 10.0624 10.3682 10.1881 10.1429 10.4396C9.91767 10.6786 9.80505 10.9678 9.80505 11.3074C9.80505 11.6595 9.91767 11.955 10.1429 12.194ZM15.8158 21.3051C15.2586 20.7266 14.98 20.0287 14.98 19.2113C14.98 18.3938 15.2586 17.6959 15.8158 17.1174C16.3848 16.5263 17.0724 16.2308 17.8786 16.2308C18.6729 16.2308 19.3546 16.5263 19.9237 17.1174C20.4927 17.6959 20.7773 18.3938 20.7773 19.2113C20.7773 20.0287 20.4927 20.7266 19.9237 21.3051C19.3665 21.8836 18.6848 22.1729 17.8786 22.1729C17.0724 22.1729 16.3848 21.8836 15.8158 21.3051ZM16.7049 19.1924C16.7049 19.5445 16.8175 19.84 17.0428 20.079C17.2681 20.3179 17.5467 20.4374 17.8786 20.4374C18.2106 20.4374 18.4892 20.3179 18.7144 20.079C18.9515 19.84 19.0701 19.5445 19.0701 19.1924C19.0701 18.8528 18.9515 18.5636 18.7144 18.3247C18.4892 18.0731 18.2106 17.9474 17.8786 17.9474C17.5467 17.9474 17.2681 18.0731 17.0428 18.3247C16.8175 18.5636 16.7049 18.8528 16.7049 19.1924Z" fill="white"/>
    <defs>
        <linearGradient id="paint0_linear_184_8629" x1="1.3967e-08" y1="30.25" x2="30.3236" y2="0.580727" gradientUnits="userSpaceOnUse">
            <stop stop-color="#FB7099"/>
            <stop offset="1" stop-color="#F0AB13"/>
        </linearGradient>
    </defs>
</svg>
