<svg viewBox="0 0 90 14" fill="none" xmlns="http://www.w3.org/2000/svg">
    <path d="M40.25 4.2502L42.15 2.8502H35.85V11.1502H42.15V9.7502H37.65V7.6502H41.45V6.2502H37.65V4.2502H40.25ZM32.4 4.2502L34.3 2.8502H27.1V11.1502H30.85C32.95 11.1502 34.15 10.2002 34.15 8.5502C34.15 6.9502 33.05 6.1002 31.05 6.1002H28.85V4.2502H32.4ZM30.8 7.4502C31.95 7.4502 32.45 7.85019 32.45 8.60019C32.45 9.35019 31.9 9.7502 30.8 9.7502H28.9V7.4502H30.8ZM47.2 2.8502H43.8V11.1502H45.6V8.8002H47.25C49.45 8.8002 50.8 7.6502 50.8 5.8002C50.8 3.9502 49.4 2.8502 47.2 2.8502ZM47.2 7.4002H45.6V4.2002H47.2C48.35 4.2002 49 4.7502 49 5.8002C48.95 6.8502 48.35 7.4002 47.2 7.4002ZM24.05 9.35019C23.55 9.60019 23.05 9.7502 22.5 9.7502C20.9 9.7502 19.7 8.6002 19.7 7.0002C19.7 5.4002 20.85 4.2502 22.5 4.2502C23.1 4.2502 23.65 4.4502 24.15 4.7502L25.45 3.8002L25.35 3.7002C24.6 3.0502 23.6 2.7002 22.45 2.7002C21.2 2.7002 20.1 3.1002 19.25 3.9002C18.45 4.7002 17.95 5.8002 18 6.9502C18 8.1002 18.45 9.2002 19.25 10.0502C20.1 10.8502 21.25 11.3002 22.4 11.2502C23.7 11.2502 24.8 10.8002 25.6 10.0002L24.45 9.1502L24.05 9.35019ZM78 6.2502H74.15V2.8502H72.35V11.1502H74.15V7.7502H78V11.1502H79.8V2.8502H78V6.2502ZM65.85 2.8502L62.25 11.1502H64.05L64.75 9.5002H68.55L69.25 11.1502H71.15L67.65 2.8502H65.85ZM65.35 8.10019L66.75 4.7502L68.05 8.10019H65.35ZM86.3 6.8502L89.55 2.8502H87.5L84.8 6.4002H83.8V2.8502H82V11.1502H83.8V7.8002H84.95L87.7 11.1502H90L86.3 6.8502ZM58.5 6.1002H56.3V4.2502H61V2.8502H54.5V11.1502H58.25C60.35 11.1502 61.55 10.2002 61.55 8.5502C61.6 6.9502 60.5 6.1002 58.5 6.1002ZM58.2 9.8002H56.3V7.5002H58.2C59.35 7.5002 59.85 7.9002 59.85 8.6502C59.9 9.4002 59.3 9.8002 58.2 9.8002Z" fill="#21A038"/>
    <path d="M12.2404 2.69043C12.565 3.11574 12.8398 3.57781 13.0592 4.06736L6.83476 8.71749L4.2334 7.06486V5.07666L6.83476 6.7293L12.2404 2.69043Z" fill="#21A038"/>
    <path d="M1.57865 6.92432C1.57865 6.83511 1.58079 6.74648 1.58509 6.65837L0.00858589 6.58008C0.00322 6.69428 1.90513e-06 6.80957 1.90513e-06 6.92593C-0.000668852 7.83511 0.175787 8.73544 0.519252 9.57531C0.862714 10.4152 1.36642 11.1781 2.00148 11.8202L3.11973 10.6875C2.63089 10.1941 2.24308 9.60757 1.97861 8.96176C1.71414 8.31596 1.57821 7.62353 1.57865 6.92432Z" fill="url(#paint0_linear_804_732)"/>
    <path d="M6.83347 1.59978C6.92146 1.59978 7.0089 1.60305 7.09583 1.6074L7.17471 0.00913852C7.0617 0.00370042 6.94792 0.000981699 6.83347 0.000981699C5.93594 -0.000127542 5.04708 0.178445 4.21788 0.526445C3.38866 0.874447 2.63544 1.38502 2.00146 2.02885L3.11972 3.16215C3.60661 2.66657 4.18537 2.2734 4.82271 2.00528C5.46005 1.73715 6.14337 1.59934 6.83347 1.59978Z" fill="url(#paint1_linear_804_732)"/>
    <path d="M6.83349 12.2503C6.7455 12.2503 6.65802 12.2503 6.57058 12.2432L6.4917 13.8409C6.60509 13.8467 6.71904 13.8496 6.83349 13.8496C7.73064 13.8506 8.61908 13.6719 9.44785 13.3238C10.2766 12.9757 11.0293 12.465 11.6628 11.8212L10.5467 10.6885C10.0597 11.1838 9.48104 11.5767 8.84383 11.8448C8.20662 12.1128 7.52342 12.2506 6.83349 12.2503Z" fill="url(#paint2_linear_804_732)"/>
    <path d="M9.79569 2.52873L11.1243 1.53627C9.90994 0.53972 8.39411 -0.00276633 6.83154 1.06084e-05V1.59936C7.88964 1.59803 8.92318 1.92209 9.79569 2.52873Z" fill="url(#paint3_linear_804_732)"/>
    <path d="M13.6666 6.92457C13.6674 6.50851 13.6315 6.09317 13.5592 5.68359L12.0885 6.78209C12.0885 6.82943 12.0885 6.87672 12.0885 6.92457C12.0889 7.66866 11.9349 8.40453 11.6368 9.08447C11.3385 9.7644 10.9027 10.3732 10.3574 10.8715L11.4183 12.0598C12.1271 11.4112 12.6936 10.619 13.0809 9.73434C13.4682 8.84968 13.6678 7.8924 13.6666 6.92457Z" fill="#21A038"/>
    <path d="M6.83362 12.2504C6.09936 12.2507 5.37323 12.0947 4.70222 11.7925C4.03125 11.4903 3.43037 11.0486 2.93851 10.4961L1.7666 11.5707C2.40646 12.2892 3.18819 12.8633 4.0611 13.256C4.93401 13.6486 5.87858 13.8509 6.83362 13.8498V12.2504Z" fill="url(#paint4_linear_804_732)"/>
    <path d="M3.30969 2.97827L2.24939 1.79004C1.54032 2.43847 0.97366 3.2307 0.586149 4.11535C0.198643 5 -0.00105648 5.95732 4.2032e-06 6.92523H1.57865C1.57832 6.18119 1.73225 5.44531 2.03045 4.76538C2.32865 4.08546 2.76448 3.4766 3.30969 2.97827Z" fill="url(#paint5_linear_804_732)"/>
    <defs>
        <linearGradient id="paint0_linear_804_732" x1="2.32075" y1="11.6207" x2="0.554535" y2="6.5827" gradientUnits="userSpaceOnUse">
            <stop offset="0.14" stop-color="#F1E813"/>
            <stop offset="0.3" stop-color="#E6E418"/>
            <stop offset="0.58" stop-color="#C9DA26"/>
            <stop offset="0.89" stop-color="#A2CC39"/>
        </linearGradient>
        <linearGradient id="paint1_linear_804_732" x1="2.4522" y1="2.31163" x2="6.90952" y2="0.635566" gradientUnits="userSpaceOnUse">
            <stop offset="0.06" stop-color="#0FA7DF"/>
            <stop offset="0.54" stop-color="#0098F8"/>
            <stop offset="0.92" stop-color="#0290EA"/>
        </linearGradient>
        <linearGradient id="paint2_linear_804_732" x1="6.38762" y1="12.8844" x2="11.4176" y2="11.7631" gradientUnits="userSpaceOnUse">
            <stop offset="0.12" stop-color="#A2CC39"/>
            <stop offset="0.28" stop-color="#86C239"/>
            <stop offset="0.87" stop-color="#219F38"/>
        </linearGradient>
        <linearGradient id="paint3_linear_804_732" x1="6.50318" y1="0.535664" x2="10.8079" y2="1.84645" gradientUnits="userSpaceOnUse">
            <stop offset="0.06" stop-color="#0290EA"/>
            <stop offset="0.79" stop-color="#0C89CA"/>
        </linearGradient>
        <linearGradient id="paint4_linear_804_732" x1="2.1626" y1="11.376" x2="6.85255" y2="13.1055" gradientUnits="userSpaceOnUse">
            <stop offset="0.13" stop-color="#F1E813"/>
            <stop offset="0.3" stop-color="#EAE616"/>
            <stop offset="0.53" stop-color="#D8DF1F"/>
            <stop offset="0.8" stop-color="#BAD52D"/>
            <stop offset="0.98" stop-color="#A2CC39"/>
        </linearGradient>
        <linearGradient id="paint5_linear_804_732" x1="0.588105" y1="7.11882" x2="2.50871" y2="2.189" gradientUnits="userSpaceOnUse">
            <stop offset="0.07" stop-color="#A2CC39"/>
            <stop offset="0.26" stop-color="#81C45E"/>
            <stop offset="0.92" stop-color="#0FA7DF"/>
        </linearGradient>
    </defs>
</svg>
