<svg width="61" height="46" viewBox="0 0 61 46" fill="none" xmlns="http://www.w3.org/2000/svg">
    <path d="M26.41 10.3963C26.2714 10.291 26.1674 10.2208 26.0634 10.1154C26.0288 10.0803 26.0288 10.0101 26.0288 9.97497C26.0981 10.0452 26.2021 10.1154 26.3061 10.1856C26.2367 10.0101 26.1674 9.83452 26.0981 9.69407C26.2021 9.72918 26.3061 9.76429 26.41 9.76429C26.5487 9.76429 26.6526 9.69407 26.6873 9.55362C26.722 9.44828 26.7566 9.41317 26.8953 9.44828C26.9646 9.48339 27.0686 9.51851 27.1725 9.55362C26.8606 9.86963 26.618 10.1505 26.41 10.3963ZM31.2623 2.63651C31.2277 2.60139 31.1237 2.60139 31.089 2.63651C30.985 2.74184 30.9157 2.84718 30.8118 2.98763C30.7771 3.05785 30.7424 3.09297 30.7078 3.16319H30.6731C30.6731 3.09297 30.6731 3.02274 30.7078 2.95252C30.7424 2.77696 30.7771 2.60139 30.8118 2.46095C30.8118 2.39072 30.7424 2.25027 30.6731 2.21516C30.5691 2.18005 30.5345 2.3205 30.5345 2.42583C30.5345 2.46095 30.5345 2.49606 30.5345 2.53117C30.5345 2.60139 30.4998 2.67162 30.4652 2.74184H30.4305C30.4651 2.49606 30.4998 2.28538 30.5345 2.0396C30.5345 2.00449 30.5345 1.93426 30.4998 1.89915C30.4652 1.86404 30.3958 1.86404 30.3612 1.86404C30.3265 1.86404 30.2919 1.89915 30.2572 1.89915C30.2572 1.86404 30.2572 1.82893 30.2572 1.82893C30.2225 1.79381 30.2226 1.72359 30.1879 1.68848C30.1532 1.72359 30.1186 1.7587 30.0839 1.79381C30.0492 1.82893 30.0492 1.89915 30.0492 1.96937C30.0492 2.25027 30.0492 2.49606 30.0839 2.77696C30.1186 3.12808 30.1532 3.4792 30.1879 3.83032C30.1879 3.93566 30.1879 4.041 30.1879 4.14633C30.1532 4.39212 30.0493 4.63791 29.9453 4.84858C29.6333 5.44549 29.3214 6.04239 28.9748 6.6393C28.7322 7.06065 28.4896 7.482 28.2816 7.93846C28.143 8.25447 27.9697 8.57048 27.7964 8.85137C27.6578 9.06205 27.4498 9.27272 27.2765 9.44828C27.2072 9.51851 27.1725 9.51851 27.0686 9.48339C26.9299 9.41317 26.7913 9.34295 26.618 9.34295C26.3407 9.34295 26.1328 9.23761 25.8901 9.09716C25.8555 9.06205 25.8208 9.02694 25.8208 9.02694C26.0634 8.99182 26.3061 8.95671 26.514 8.9216C26.5833 8.9216 26.618 8.85137 26.6873 8.81626C26.6873 8.81626 26.6873 8.78115 26.6527 8.78115C26.3754 8.95671 26.0981 8.9216 25.7862 8.85137C25.7515 8.85137 25.7169 8.78115 25.6822 8.71092C25.6129 8.32469 25.3009 8.04379 24.9197 8.00868C24.6771 7.97357 24.4691 8.00868 24.1918 8.00868C24.0532 7.79801 23.7066 7.65756 23.3947 7.65756C23.0134 7.69267 22.8055 7.83312 22.6668 8.21935C22.6668 8.25447 22.5975 8.28958 22.5629 8.28958C22.4589 8.28958 22.3896 8.18424 22.4589 8.04379C22.5282 7.93846 22.5975 7.83312 22.7015 7.79801C23.0481 7.55222 23.464 7.482 23.8799 7.51711C23.9839 7.51711 24.0532 7.55222 24.1572 7.58733C24.0879 7.55222 24.0186 7.482 23.9492 7.482C23.5333 7.44688 23.1174 7.482 22.7015 7.62245C22.5282 7.69267 22.4242 7.79801 22.3549 7.97357C22.2856 8.18424 22.2163 8.3598 22.2856 8.60559C22.0083 8.53536 21.939 8.57048 21.8004 8.78115C21.5231 9.34295 21.3844 9.93985 21.4884 10.5368C21.5577 10.923 21.731 11.239 22.1123 11.4146C22.1816 11.4497 22.2163 11.4848 22.2509 11.5199C22.1123 11.6955 21.9043 11.7306 21.7657 11.6604C21.4191 11.5199 21.0725 11.3443 20.7259 11.2039C20.3447 11.0986 20.0327 10.8528 19.7555 10.6421C19.5822 10.5016 19.4089 10.3963 19.2356 10.291C18.9583 10.1505 18.7157 9.97497 18.5077 9.72918C18.1958 9.34295 17.8492 8.99182 17.5026 8.6407C17.26 8.39492 16.9481 8.14913 16.7055 7.93846C16.2549 7.55222 15.8736 7.06065 15.6657 6.46374C15.527 6.00728 15.2498 5.62105 15.0072 5.23481C14.9725 5.1997 14.9378 5.16459 14.9032 5.12948H14.8685C14.8685 5.1997 14.8339 5.30504 14.8685 5.37526C14.9378 5.55082 15.0072 5.7615 15.1111 5.93706C15.1458 6.00728 15.1458 6.04239 15.1458 6.11262C15.1111 6.11262 15.1111 6.11262 15.0765 6.14773C15.0072 6.04239 14.9725 5.93706 14.9032 5.83172C14.8339 5.72638 14.7992 5.62105 14.7299 5.55082C14.6952 5.55082 14.6952 5.58594 14.6606 5.58594C14.5912 5.83172 14.7646 6.04239 14.7646 6.28818C14.6952 6.18284 14.6606 6.07751 14.5913 6.00728C14.5566 5.97217 14.4873 5.86683 14.4526 5.86683C14.3486 5.90195 14.3486 6.00728 14.3833 6.07751C14.418 6.21796 14.4873 6.32329 14.5219 6.46374C14.3833 6.49885 14.3486 6.53397 14.4526 6.67441C14.5219 6.77975 14.6259 6.84998 14.6952 6.9202C14.7646 6.99043 14.8685 7.09576 14.9032 7.2011C15.0072 7.44688 15.1111 7.69267 15.3537 7.86823C15.3884 7.90334 15.4231 7.93846 15.4577 8.00868C15.8043 8.46514 16.1509 8.9216 16.4975 9.34295C16.8441 9.76429 17.1907 10.1856 17.5026 10.607C17.6759 10.8528 17.8839 11.0283 18.0918 11.1688C18.2305 11.2741 18.4038 11.3795 18.5077 11.4848C18.9237 11.8359 19.3049 12.187 19.7208 12.503C20.0327 12.7488 20.3793 12.9595 20.6913 13.2053C20.7952 13.2755 20.9339 13.3809 20.9685 13.5213C21.5231 14.8205 21.8004 16.1898 21.6964 17.5943C21.6617 17.9806 21.6271 18.4019 21.4191 18.753C21.3498 18.8935 21.2805 19.069 21.2458 19.2446C21.0379 19.9468 20.8299 20.6491 20.4486 21.2811C20.3447 21.4567 20.31 21.6673 20.31 21.8429C20.2754 22.1238 20.2407 22.4398 20.2407 22.7207C20.206 23.2825 20.1714 23.8092 20.206 24.371C20.2753 25.1786 20.2754 26.0213 20.2754 26.8288C20.2754 26.864 20.2754 26.8991 20.2754 26.9693C20.1714 26.864 20.0674 26.7586 19.9981 26.6533C19.7555 26.4075 19.5129 26.1968 19.2009 26.0915C18.6464 25.951 18.1265 25.7404 17.6066 25.4946C17.2947 25.3541 17.0867 25.1435 16.9134 24.8626C16.8441 24.7572 16.8094 24.6519 16.7401 24.5465C16.6015 24.3008 16.3242 24.1954 16.0816 24.371C15.943 24.4412 15.839 24.5465 15.735 24.687C15.4231 25.0732 15.0418 25.3892 14.6606 25.7053C14.5566 25.7755 14.4526 25.8106 14.418 25.9159C14.2447 26.1968 14.0714 26.4777 14.106 26.864C14.106 27.0395 14.1753 27.18 14.1753 27.3555C14.1753 27.5311 14.2793 27.6013 14.3486 27.7066C14.418 27.7769 14.5219 27.7769 14.5913 27.6715C14.9032 27.2502 15.3191 27.0044 15.7003 26.6884C15.839 26.5831 16.0123 26.4426 16.2549 26.4777C16.6015 26.5479 16.9134 26.6533 17.1907 26.864C17.468 27.1097 17.7452 27.3555 17.9879 27.6013C18.7157 28.3738 19.5475 28.9707 20.4833 29.392C21.1418 29.6729 21.8004 29.5325 22.1123 28.76C22.2163 28.5142 22.3203 28.2684 22.3896 28.0227C22.4242 27.9173 22.4589 27.812 22.4589 27.7066C22.5629 26.7937 22.6322 25.9159 22.8055 25.0381C22.8748 24.687 22.9441 24.3359 23.0134 23.9848C23.0481 23.9848 23.0481 23.9848 23.0828 23.9848C23.1521 24.1603 23.2214 24.3008 23.2561 24.4763C23.2907 24.6519 23.3254 24.8274 23.36 25.003C23.4987 25.5297 23.6373 26.0915 23.7759 26.6182C23.9146 27.1449 23.9492 27.6364 24.0185 28.1631C24.0532 28.4791 24.1225 28.7951 24.4345 28.9707C24.5038 29.0058 24.5384 29.1111 24.5731 29.1814C24.6424 29.392 24.7117 29.6027 24.781 29.8134C24.8504 29.9538 24.8157 30.0943 24.7464 30.2347C24.6078 30.4454 24.6078 30.6561 24.6771 30.8668C24.8504 31.4637 24.9197 32.0606 24.7117 32.6575C24.6771 32.7628 24.6771 32.9033 24.7117 33.0086C24.781 33.3246 24.885 33.6055 25.0237 33.8864C25.093 34.062 25.3703 34.1322 25.5089 34.0269C25.6129 33.9215 25.7168 33.8162 25.8208 33.7108C25.9595 33.6055 26.0288 33.4651 26.0288 33.2895C25.9941 32.7628 25.9941 32.2361 25.8555 31.7094C25.8208 31.569 25.8208 31.4285 25.8901 31.2881C25.9248 31.2179 25.9248 31.1125 25.9248 31.0072C25.8555 30.7263 25.8901 30.4805 25.9941 30.1996C26.2021 29.7432 26.2714 29.2165 26.2021 28.7249C26.1674 28.5493 26.1328 28.3738 26.0634 28.1982C25.9248 27.8822 26.0288 27.5311 26.0634 27.2151C26.1328 26.6182 26.2021 26.0213 26.2714 25.4244C26.3407 24.7923 26.3754 24.1603 26.41 23.5283C26.4447 23.1069 26.514 22.7207 26.4794 22.2994C26.4447 22.0185 26.41 21.7727 26.3754 21.4918C26.3061 20.9651 26.2021 20.4384 26.0981 19.9117C26.0634 19.7011 25.9248 19.4904 25.8901 19.2797C25.7515 18.6126 25.8208 17.9103 25.9248 17.2432C25.9941 16.7165 26.1674 16.2601 26.3754 15.8036C26.514 15.4876 26.5833 15.1716 26.4447 14.8205C26.41 14.7151 26.41 14.6098 26.3754 14.5396C26.3061 14.2938 26.3407 14.048 26.41 13.7671C26.4447 13.8373 26.4793 13.9075 26.514 13.9427C26.618 14.1533 26.7566 14.3289 26.9646 14.4693C27.2418 14.6449 27.5191 14.8205 27.6231 15.2067C27.6578 14.8205 27.5538 14.6449 27.2419 14.4693C27.1725 14.4342 27.1032 14.3991 27.0686 14.364C26.8606 14.2235 26.7913 14.048 26.7566 13.8022C26.8259 13.8724 26.8606 13.9426 26.8953 14.0129C26.9992 14.1533 27.1032 14.2938 27.3112 14.2938C27.5884 14.3289 27.5884 14.3289 27.6231 14.6098C27.6231 14.6449 27.6231 14.6449 27.6231 14.68C27.7617 14.4342 27.7617 14.364 27.5885 14.1884C27.4845 14.1182 27.3458 14.048 27.2419 14.0129C26.9299 13.9075 26.8606 13.732 27.0339 13.4862C27.1379 13.5213 27.2072 13.5915 27.2765 13.5915C27.6231 13.6266 27.8311 13.8022 28.0043 14.0831C28.143 14.3289 28.3856 14.4342 28.6975 14.364C28.3856 14.2938 28.1777 14.1182 28.039 13.8724C27.8657 13.6266 27.6924 13.416 27.3805 13.3106C27.2072 13.2404 27.1379 13.1351 27.0686 12.9595C26.9992 12.7488 26.8606 12.5733 26.7913 12.3977C26.7913 12.3626 26.7913 12.3275 26.7913 12.2573C26.9299 12.3626 27.0339 12.4679 27.1379 12.5733C27.2072 12.6435 27.3112 12.6435 27.4152 12.6084C27.6924 12.4679 27.8311 12.5382 27.935 12.8191C28.0044 12.9595 28.0737 13.1 28.1776 13.2053C28.3163 13.3457 28.4203 13.3457 28.5936 13.1702C28.5589 13.1702 28.5242 13.1702 28.4896 13.1702C28.247 13.1702 28.2123 13.1351 28.1776 12.8893C28.143 12.7839 28.1083 12.6786 28.039 12.6084C27.8657 12.4328 27.6578 12.3275 27.4152 12.2924C27.2419 12.2573 27.1032 12.187 27.0686 12.0115C27.1725 11.9061 27.2765 11.7657 27.3805 11.6604C27.4845 11.8359 27.6578 11.9061 27.8311 11.871C28.0043 11.8359 28.1083 11.7306 28.143 11.555C28.1777 11.4497 28.247 11.4497 28.3163 11.4848C28.5242 11.555 28.7322 11.6252 28.9401 11.6955C29.0788 11.7306 29.2174 11.8008 29.3561 11.871C29.0095 11.6252 28.6282 11.4146 28.2123 11.3092C28.0737 11.2741 28.0043 11.3092 28.0043 11.4497C28.0043 11.5199 27.935 11.5901 27.9004 11.5901C27.7617 11.6252 27.5884 11.5901 27.4845 11.4848C27.5884 11.3443 27.7271 11.2039 27.8311 11.0634C28.1083 11.1688 28.3856 11.2741 28.6629 11.3795V11.3443C28.4203 11.2039 28.143 11.0634 27.9004 10.923C27.9697 10.8177 28.0737 10.6772 28.143 10.5719C28.5242 10.0101 28.8708 9.48339 29.2521 8.9216C29.3561 8.78115 29.46 8.60559 29.5294 8.43003C29.668 8.04379 29.8066 7.62245 29.9453 7.23621C30.1532 6.67442 30.3958 6.14773 30.5345 5.55082C30.6038 5.23481 30.7424 4.95392 30.8464 4.6379C30.8811 4.49746 30.9504 4.35701 30.9504 4.18145C30.985 4.041 30.9504 3.90055 30.9504 3.79521C30.9504 3.65476 30.9851 3.51431 31.0544 3.37386C31.1237 3.23342 31.193 3.09297 31.2277 2.95252C31.297 2.74184 31.297 2.67162 31.2623 2.63651Z" fill="#84B524"/>
    <path d="M36.5654 23.2475C36.4614 23.1772 36.3921 23.107 36.3228 23.0017C36.1495 22.791 35.9415 22.7208 35.6642 22.7208C35.5949 22.7208 35.5603 22.6857 35.491 22.6506C35.5256 22.6155 35.5256 22.5452 35.5603 22.5101C35.6989 22.2643 35.8029 22.0537 35.9415 21.8079C36.0108 21.6674 36.0802 21.6674 36.1841 21.7025C36.2881 21.7376 36.4268 21.7728 36.4268 21.9132C36.4268 22.0185 36.4268 22.0888 36.4268 22.1941C36.4614 22.1941 36.4961 22.2292 36.5654 22.2643V23.2475V23.2475ZM47.3097 26.548C47.1711 26.1969 46.9631 25.8809 46.6859 25.6351C46.4086 25.3542 46.2006 25.0733 46.166 24.652C46.1313 24.3008 45.958 24.0551 45.6807 23.8444C45.4728 23.7039 45.3688 23.7039 45.1609 23.8795C45.0222 23.9848 44.8836 24.1253 44.7103 24.2306C44.537 24.3711 44.3637 24.4062 44.1557 24.336C43.3932 24.1604 42.6307 24.0199 41.8682 23.8093C41.4523 23.7039 41.0711 23.5635 40.6552 23.4581C40.3432 23.3879 40.0313 23.423 39.7194 23.5635C39.5114 23.6688 39.2688 23.7039 39.0262 23.8093C39.0262 23.6337 38.9915 23.4933 39.0262 23.3879C39.0955 23.0017 39.1995 22.6155 39.3035 22.2292C39.3035 22.1941 39.3728 22.1239 39.4074 22.1239C39.6847 22.0537 39.858 21.8781 39.962 21.6323C39.9966 21.5621 40.066 21.4567 40.066 21.3865C40.066 21.2461 40.066 21.1407 40.0313 21.0003C39.9966 20.4736 39.962 19.9469 40.1353 19.4202C40.2739 19.034 40.3086 18.6829 40.2393 18.2966C40.2046 18.1211 40.1699 17.9455 40.2046 17.77C40.2739 17.4188 40.3432 17.0677 40.3779 16.7166C40.4125 15.9441 40.4125 15.2068 40.3779 14.4343C40.3779 14.013 40.3086 13.6267 40.4819 13.2054C40.5165 13.1351 40.5165 13.0649 40.5165 12.9947C40.5512 12.4329 40.7245 11.9413 40.9671 11.4498C41.3137 10.7475 41.7296 10.0804 42.2148 9.44836C42.5268 9.02701 42.8734 8.64078 43.3932 8.4301C43.4626 8.39499 43.5319 8.32477 43.6012 8.28966C44.0171 8.00876 44.433 7.69275 44.8836 7.41185C45.1262 7.2714 45.2302 7.06073 45.2648 6.81494C45.4381 5.8318 45.5075 4.84866 45.4381 3.86551C45.4035 3.51439 45.4035 3.16327 45.3688 2.81215C45.2995 2.28546 45.4728 1.86411 45.8887 1.58322C45.9234 1.5481 45.958 1.54811 45.9927 1.51299C46.0273 1.47788 46.0273 1.40766 46.0273 1.37254C45.9927 1.33743 45.9234 1.33743 45.8887 1.33743C45.7847 1.37254 45.6807 1.40766 45.5768 1.44277C45.5074 1.44277 45.4381 1.44277 45.3688 1.44277C45.3688 1.30232 45.3688 1.19698 45.4035 1.05653C45.4035 0.951197 45.4035 0.84586 45.2648 0.810748C45.1262 0.810748 45.1262 0.916085 45.0915 0.986309C45.0569 1.09165 45.0222 1.19698 44.9876 1.33743H44.9529C44.9529 1.26721 44.9183 1.23209 44.9183 1.16187C44.9183 1.02142 44.9182 0.880972 44.8836 0.740523C44.8836 0.705411 44.8143 0.635187 44.7796 0.635187C44.7449 0.635187 44.6756 0.670299 44.641 0.705411C44.6063 0.740523 44.6063 0.810748 44.6063 0.880972C44.5717 0.986309 44.5716 1.09165 44.537 1.23209C44.5023 1.23209 44.5023 1.23209 44.4677 1.23209C44.4677 1.12676 44.5023 1.02142 44.5023 0.880972C44.5023 0.775636 44.4677 0.670299 44.3637 0.670299C44.2597 0.670299 44.2251 0.740523 44.2251 0.84586C44.2251 0.916085 44.1904 0.986309 44.1904 1.05653C44.0171 0.880972 43.8438 0.810748 43.7052 0.84586C43.5665 0.880972 43.5665 0.986309 43.6359 1.09165C43.6705 1.12676 43.7398 1.19698 43.7398 1.23209C43.7745 1.5481 43.8785 1.829 44.0864 2.07479C44.1211 2.14501 44.1557 2.25035 44.1557 2.32057C44.1904 2.98771 44.1558 3.65484 44.0518 4.32197C43.9478 4.91888 43.8785 5.51579 43.7745 6.14781C43.7398 6.28826 43.7052 6.35848 43.5665 6.39359C43.3932 6.42871 43.2546 6.49893 43.0813 6.49893C42.6654 6.56916 42.3188 6.88517 41.9029 6.81494H41.8682C41.7989 6.81494 41.7296 6.81494 41.6603 6.81494C41.591 6.81494 41.5217 6.77983 41.4523 6.77983C41.2444 6.74472 41.0711 6.74472 40.8978 6.56916C40.8285 6.49893 40.6898 6.42871 40.5859 6.42871C40.2046 6.42871 39.8233 6.42871 39.4768 6.46382C39.5461 6.32337 39.65 6.1127 39.754 5.93714C39.858 5.93714 39.9273 5.90202 39.962 5.76157C39.9966 5.58601 40.066 5.44556 40.1353 5.27C40.1699 5.16467 40.2739 5.02422 40.2739 4.95399C40.2393 4.77843 40.3086 4.60287 40.3086 4.46242C40.3086 4.35708 40.3432 4.21664 40.3086 4.1113C40.2392 3.65484 40.0313 3.23349 39.6501 2.91748C39.4768 2.77703 39.3034 2.6717 39.0955 2.53125L39.1302 2.49614C39.0608 2.46102 38.9915 2.42591 38.9222 2.3908C38.9222 2.42591 38.8876 2.42591 38.8529 2.49614C38.8529 2.42591 38.8529 2.42591 38.8529 2.3908C38.7489 2.3908 38.6796 2.35569 38.6103 2.35569C38.541 2.42591 38.4023 2.46102 38.2983 2.49614C38.0557 2.56636 37.8478 2.74192 37.6398 2.88237C37.2932 3.12816 37.0506 3.44417 37.0506 3.90063C37.0506 3.97085 37.0506 4.04107 37.0159 4.07619C36.912 4.18152 36.9466 4.32197 36.9466 4.42731C36.9466 4.53265 36.912 4.63798 36.912 4.74332C36.912 4.91888 36.8427 5.05933 36.8773 5.23489C36.912 5.48068 36.9813 5.69135 37.0506 5.90202C37.0853 6.04247 37.0853 6.18292 37.1199 6.32337H37.0853C37.0506 6.28826 37.016 6.25315 36.9813 6.18292C36.7387 5.90202 36.4614 5.69135 36.0802 5.8318C35.8029 5.93714 35.5949 5.86691 35.387 5.72646C35.3177 5.69135 35.2483 5.62113 35.179 5.58601C34.8671 5.37534 34.5898 5.16467 34.2432 4.91888C34.3472 4.53265 34.3472 4.07619 34.3125 3.65484C34.2779 2.98771 34.3125 2.32057 34.4165 1.65344C34.4512 1.30232 34.6938 1.16187 34.9364 1.12676C35.3176 1.05653 35.6989 0.880972 36.0455 0.705411C36.2188 0.635187 36.3921 0.424513 36.5307 0.284064C36.5654 0.248952 36.6 0.178728 36.6347 0.108503C36.5654 0.0733908 36.4961 0.0382783 36.4268 0.0382783C36.3921 0.0382783 36.3228 0.0733905 36.2535 0.0382783C36.1495 -0.0319462 36.0455 0.00316616 35.9415 0.0733907C35.8375 0.108503 35.6989 0.143615 35.6296 0.108503C35.4909 -0.031946 35.387 0.0382785 35.3177 0.108503C35.0057 0.354289 34.6245 0.319176 34.2779 0.354289C34.0006 0.389401 33.7926 0.52985 33.7233 0.810748C33.7233 0.84586 33.6887 0.916085 33.654 0.951197C33.3767 1.37254 33.1341 1.79389 33.0301 2.28546C32.9262 2.74192 32.7875 3.23349 32.7182 3.68995C32.6489 4.18152 32.5796 4.70821 32.5449 5.19978C32.5449 5.34023 32.5449 5.44556 32.6489 5.51579C32.6836 5.5509 32.7182 5.62113 32.7875 5.65624C33.2728 6.35848 33.7927 6.9905 34.4512 7.5523C34.5898 7.65764 34.6938 7.79808 34.7284 7.97365C34.7631 8.1141 34.7631 8.21943 34.9017 8.28966C34.9364 8.28966 34.9364 8.35988 34.9017 8.39499C34.8671 8.60567 34.8324 8.78123 34.7978 8.9919C34.7631 9.34302 34.6938 9.65903 34.6591 10.0102C34.6591 10.4666 34.5898 10.9231 34.4858 11.3795C34.4512 11.4849 34.4165 11.6253 34.4165 11.7307C34.3818 11.9764 34.3819 12.1871 34.3472 12.4329C34.2779 12.784 34.2086 13.1351 34.1392 13.4863C34.0699 13.8725 34.0006 14.2939 34.0006 14.6801C34.0006 15.1365 34.0353 15.5579 34.0699 16.0144C34.1046 16.3304 34.1046 16.3304 34.4165 16.3304H34.4512C34.3819 16.5059 34.3472 16.7166 34.2779 16.857C34.1392 17.1379 34.0006 17.3837 33.9313 17.6997C33.862 18.1913 33.6887 18.6478 33.5847 19.1393C33.4461 19.7363 33.3421 20.3683 33.2034 20.9652C33.1688 21.0705 33.1341 21.1759 33.2381 21.2812C33.2728 21.2812 33.2381 21.3514 33.2381 21.3865C33.1341 22.0888 33.0301 22.791 32.9262 23.4933C32.8568 23.9146 32.8915 24.2657 33.1688 24.6169C33.2728 24.7222 33.3767 24.7924 33.5154 24.7924C33.862 24.7924 34.1739 24.7573 34.5205 24.7924C35.2137 24.8275 35.9069 24.8977 36.6001 24.9329C36.704 24.9329 36.7387 24.968 36.7733 25.0733C36.8427 25.3542 36.808 25.6351 36.6347 25.8809C36.3228 26.3022 36.3228 26.7938 36.3574 27.2854C36.4268 27.8121 36.912 28.0227 37.2932 27.6716C37.5705 27.4258 37.8131 27.1098 37.9171 26.7236C37.9864 26.5129 38.0557 26.2671 38.125 26.0565C38.1597 25.9511 38.1944 25.9511 38.2983 25.9511C38.4716 25.9511 38.6449 25.9511 38.8529 25.9511C39.0955 25.9511 39.3381 25.916 39.6154 25.916C40.1353 25.916 40.6898 25.9511 41.2097 25.9511C41.7296 25.916 42.2841 25.8458 42.804 25.8107C43.3239 25.7756 43.8438 25.7756 44.329 26.0213C44.6063 26.1618 44.9182 26.3022 45.2302 26.4427C45.4035 26.5129 45.5421 26.6182 45.6461 26.7587C45.854 27.0396 46.062 27.3205 46.2699 27.6014C46.3739 27.7067 46.4779 27.8472 46.5819 27.9525C46.8245 28.1632 47.0671 28.093 47.1711 27.8121C47.4484 27.3907 47.483 26.9694 47.3097 26.548Z" fill="#F7AA11"/>
    <path d="M2.94526 15.6985C2.97992 15.4878 2.97993 15.2772 3.01459 15.0314C3.56913 15.0314 4.05437 15.1718 4.47028 15.6283C4.5396 15.7336 4.67822 15.839 4.7822 15.839C5.57936 15.8741 6.37653 15.9092 7.17369 15.9092C7.5896 15.9092 8.0055 15.9092 8.42141 15.9092C8.62937 15.9092 8.87199 15.8741 9.07994 15.8039C9.2879 15.7687 9.49586 15.6634 9.66916 15.6283C10.2237 15.4878 10.6396 15.1367 11.0209 14.7505C11.1595 14.61 11.2981 14.5047 11.5061 14.4345C11.6794 14.3643 11.8527 14.294 11.9913 14.1536C12.1646 14.0131 12.3379 13.8376 12.4419 13.6971C12.4072 13.662 12.3379 13.5567 12.2686 13.4864C12.0953 13.346 12.0606 13.2407 12.2339 13.1002C12.3379 12.9949 12.5112 12.9598 12.6498 12.9247C13.2044 12.7842 13.343 12.6438 13.343 12.082C13.343 11.9766 13.343 11.8713 13.3777 11.7659C13.4124 11.3095 13.5856 10.9233 13.8976 10.5721C14.1402 10.2912 14.4521 10.1859 14.7987 10.1157C15.3186 10.0103 15.7345 10.1157 16.1158 10.4317C16.4623 10.7126 16.8436 10.9935 17.2595 11.3095C17.0515 11.2042 16.8783 11.0988 16.7396 11.0286L16.705 11.0637C16.9129 11.2042 17.1555 11.3797 17.4328 11.5553C17.1555 11.4499 16.9822 11.3446 16.7396 11.2744C16.8783 11.8362 16.8089 12.3629 16.7396 12.8895C16.705 13.0651 16.7743 13.3109 16.8783 13.4162C17.1555 13.6269 17.4675 13.6971 17.8141 13.5216C17.9527 13.4513 18.0913 13.4162 18.23 13.346C18.23 13.4162 18.23 13.4162 18.1953 13.4513C18.3686 13.4864 18.5419 13.4864 18.7152 13.5216C18.4033 13.5216 18.0913 13.5216 17.8141 13.7673C17.918 13.7673 18.0567 13.7322 18.1953 13.7322C18.0913 13.7673 18.0567 13.8025 17.918 13.8376C18.1953 13.9078 18.4379 13.978 18.6459 14.0482V14.0834C18.4033 14.0482 18.1607 14.0131 17.918 13.978V14.0131C18.0913 14.0834 18.2646 14.1185 18.4379 14.1887C18.0913 14.294 17.8141 13.9429 17.5021 13.978C17.5021 14.0131 17.5021 14.0131 17.5021 14.0482C17.6408 14.1536 17.8141 14.2589 17.9527 14.3994C17.9527 14.3994 17.9527 14.4345 17.918 14.4345C17.8141 14.3643 17.7101 14.3291 17.6061 14.2589C17.5714 14.294 17.5715 14.294 17.5368 14.3291C17.6408 14.4696 17.7447 14.6452 17.8141 14.7856C17.8834 14.8909 17.918 15.0314 17.9527 15.1367C17.918 15.1367 17.918 15.1367 17.8834 15.1718C17.8141 15.0665 17.7447 14.9612 17.6408 14.8207C17.6754 15.0314 17.7101 15.2069 17.7447 15.3825C17.6061 15.3123 17.6408 15.1016 17.4675 15.1367C17.3288 14.9261 17.1902 14.7154 17.0516 14.4696C17.0169 14.5749 16.9822 14.6803 16.9476 14.7856C16.9476 14.6452 16.9476 14.5398 16.9129 14.3643C16.8436 14.5398 16.8089 14.61 16.7396 14.7505C16.705 14.61 16.705 14.5047 16.6703 14.4696H16.2544C16.6703 14.3291 16.5317 14.0834 16.4623 13.8376C16.4277 13.8727 16.393 13.9429 16.2891 14.0131V13.3109C16.2544 13.3109 16.2197 13.2758 16.2197 13.2758C16.1158 13.4162 16.0464 13.5567 15.9078 13.662C15.6999 13.8376 15.6305 14.0834 15.5959 14.3291C15.5959 14.3994 15.6305 14.4696 15.6652 14.5398C15.9078 14.8909 16.2891 15.1718 16.3584 15.6634C16.393 15.9092 16.497 16.155 16.5663 16.4008C16.6356 16.5763 16.601 16.7519 16.4623 16.8572C16.3237 16.9626 16.3237 17.0679 16.393 17.2083C16.5663 17.4892 16.497 17.7701 16.3237 18.0159C16.2544 18.1213 16.2891 18.2266 16.3584 18.2968C16.8783 18.9288 17.5368 19.3502 18.1607 19.8066C18.2993 19.8769 18.4726 19.912 18.6112 19.9471C18.6112 19.9822 18.6112 19.9822 18.6112 20.0173C18.4726 20.0524 18.3339 20.0875 18.1953 20.1227C18.2646 20.2631 18.334 20.3684 18.4033 20.5089C18.3686 20.544 18.3686 20.544 18.334 20.5791C18.1953 20.4738 18.0567 20.4036 17.8834 20.2631C17.8834 20.4738 17.8834 20.6142 17.918 20.7547C17.8834 20.7547 17.8834 20.7547 17.8487 20.7898C17.7794 20.6493 17.6754 20.5089 17.6061 20.3333C17.4675 20.5791 17.3635 20.7898 17.2595 21.0005C17.2248 21.0005 17.1902 21.0005 17.1902 20.9654C17.1902 20.8951 17.1555 20.7898 17.1555 20.7196C17.1555 20.5089 17.1902 20.2982 17.1902 20.0875C17.1902 20.0173 17.1555 19.9471 17.1209 19.912C16.8089 19.7364 16.497 19.596 16.1504 19.4204C16.1504 19.5609 16.0811 19.6662 16.1158 19.7715C16.1851 20.0875 16.1504 20.3684 15.9771 20.6493C15.9425 20.7196 15.9771 20.7898 15.9771 20.86C16.1851 21.2814 16.4277 21.7027 16.5663 22.1592C16.6356 22.405 16.7743 22.4752 16.9822 22.5454C17.1555 22.5805 17.2942 22.5805 17.4675 22.5805C17.7447 22.5805 17.7447 22.6156 17.6408 22.8614C17.4675 23.2125 17.5714 23.4232 17.918 23.5285C17.9527 23.5285 18.022 23.5285 18.0567 23.5637C18.126 23.5988 18.1953 23.669 18.23 23.7041C18.23 23.7743 18.1953 23.8446 18.126 23.8797C17.9873 24.0201 17.8141 24.1255 17.6408 24.2659C17.8487 24.6873 18.0913 25.0735 18.23 25.4597C18.4033 25.8811 18.5072 26.3375 18.6112 26.794C18.6805 27.1802 18.5072 27.4962 18.1953 27.742C17.8834 27.9527 17.5714 27.8825 17.2595 27.742C17.1555 27.6718 17.0169 27.6016 16.9476 27.4962C16.3584 26.9695 15.8731 26.4077 15.5612 25.6704C15.4919 25.5651 15.4226 25.4948 15.2839 25.4597C15.0413 25.4246 14.8334 25.2842 14.6254 25.2139C14.5908 25.2139 14.5908 25.1788 14.5908 25.1437C14.5214 24.933 14.3828 24.9681 14.2095 25.0033C14.2788 25.4597 14.3481 25.9162 14.4175 26.3726C14.4868 27.0749 14.5908 27.8122 14.4521 28.5496C14.3135 29.287 13.2737 29.6732 12.7192 29.1816C12.5112 29.0061 12.3033 28.7954 12.1646 28.5145C11.7487 27.6016 11.3675 26.6886 10.9862 25.7757C10.8129 25.3544 10.6396 24.8979 10.4317 24.4766C10.3277 24.2308 10.189 24.0201 9.8771 24.0903C9.84244 24.0903 9.77312 24.0552 9.70381 24.0552C9.32255 23.8797 8.90666 23.9148 8.52541 24.0552C8.28279 24.1255 8.04017 24.0903 7.9362 23.9148C7.79756 23.7041 7.90153 23.4934 8.04017 23.353C8.73335 22.7912 9.42654 22.2645 10.1197 21.7729C10.3623 21.5974 10.6049 21.7027 10.7436 21.9836C10.8476 22.1592 10.9169 22.3347 11.0555 22.5805C11.0902 22.4752 11.1248 22.405 11.1595 22.3347C11.2288 22.0187 11.2288 21.7027 11.3328 21.4218C11.5754 20.7547 11.818 20.0875 11.8527 19.3502C11.8873 18.9991 11.9567 18.6479 11.9567 18.2968C11.922 17.735 11.818 17.1732 11.714 16.6114C11.6794 16.471 11.6101 16.3657 11.4368 16.471C10.7782 16.8923 10.0504 17.0328 9.28789 17.1381C8.83732 17.2083 8.38676 17.3488 7.97085 17.3137C7.13903 17.2786 6.3072 17.1381 5.47538 16.9977C5.09413 16.9626 4.71288 16.8221 4.33163 16.8572C3.95038 16.8923 3.63845 16.787 3.29186 16.6817C3.18788 16.6465 3.01459 16.6114 3.08391 16.4008C3.08391 16.3657 3.0839 16.3305 3.04924 16.3305C2.87594 16.2603 3.04925 15.9443 2.80664 15.9092C2.94528 15.7687 2.94526 15.7336 2.94526 15.6985Z" fill="#ED7221"/>
    <path d="M27.8314 19.2447C27.866 19.2447 27.866 19.2447 27.9007 19.2447C27.8314 18.8936 27.7621 18.5074 27.6927 18.1212C27.5541 18.1914 27.4501 18.2616 27.3462 18.2967C27.5195 18.6127 27.6581 18.9287 27.8314 19.2447ZM26.5143 14.013C26.5836 14.1535 26.7223 14.2939 26.7569 14.4344C26.7916 14.6099 26.757 14.8206 26.7223 14.9962C26.6183 15.4175 26.7916 15.8389 26.8263 16.2602C26.8263 16.4007 26.8609 16.6113 26.9649 16.6816C27.0342 16.7518 27.2422 16.7167 27.3808 16.7518C27.6581 16.822 27.9007 16.8922 28.2126 16.9976C28.282 16.9273 28.4206 16.822 28.5592 16.7167C28.8018 16.5411 29.0445 16.4007 29.3564 16.4709C29.4257 16.4709 29.5297 16.4709 29.5643 16.4007C29.703 16.2602 29.807 16.3304 29.9456 16.3655C30.3268 16.5762 30.7081 16.7869 30.8814 17.2785C31.02 17.138 31.0894 16.9976 31.228 16.8922C31.5053 16.6816 31.7479 16.4358 32.0598 16.2602C32.2678 16.1198 32.545 16.1549 32.7877 16.2251C32.9956 16.2953 33.2035 16.3655 33.3768 16.4709C33.4808 16.506 33.5501 16.6113 33.5848 16.7167C33.5155 16.6816 33.4115 16.6464 33.3422 16.6113C33.4808 16.8571 33.6195 17.1029 33.7234 17.3487C33.7234 17.3487 33.6888 17.3487 33.6888 17.3838C33.5848 17.2434 33.4808 17.1029 33.3768 16.9625C33.3422 16.9625 33.3422 16.9976 33.3075 16.9976C33.3075 17.0327 33.3075 17.0678 33.3075 17.1029C33.4462 17.4891 33.4115 17.8051 33.0649 18.0509C32.9609 18.1212 32.9263 18.2616 32.8223 18.3318C32.649 18.4723 32.441 18.5776 32.2331 18.683C32.2331 18.6478 32.1984 18.6478 32.1984 18.6127C32.3717 18.5074 32.5797 18.4021 32.7877 18.2967C32.3717 18.2616 31.9212 18.5425 31.5053 18.1212C31.8172 18.1563 32.1638 17.9105 32.1984 17.6296C32.1984 17.5945 32.1291 17.4891 32.0945 17.454C31.8172 17.4189 31.5053 17.3838 31.228 17.3838C31.1933 17.3838 31.0893 17.454 31.0893 17.5243C31.0547 17.8403 31.02 18.1563 31.0547 18.5074C31.0547 18.8234 31.02 19.1043 30.8467 19.3852C30.8121 19.4554 30.7427 19.5608 30.6734 19.5608C30.3962 19.5959 30.3615 19.8417 30.2229 19.9821C30.1882 20.0172 30.1882 20.1226 30.1882 20.1928C30.2229 20.2279 30.3268 20.263 30.3962 20.263C30.4655 20.263 30.5001 20.2279 30.5695 20.1928C30.6388 20.1928 30.7428 20.1577 30.8121 20.1928C31.02 20.3683 31.228 20.263 31.4359 20.263C31.6092 20.263 31.7825 20.2981 31.9212 20.3683C32.1638 20.5088 32.2331 20.6492 32.1638 20.9301C32.0945 21.2461 32.1291 21.3164 32.4411 21.4217C32.8223 21.527 33.2382 21.6675 33.6195 21.7377C34.278 21.9133 34.9019 22.1942 35.4911 22.5102C35.7337 22.6506 35.9763 22.7911 36.2189 22.8964C36.3922 22.9666 36.6348 23.0018 36.8428 23.0018C37.0854 23.0018 37.2933 23.072 37.5359 22.9666C37.6053 22.9315 37.7786 23.072 37.8825 23.1773C37.9519 23.2475 38.0905 23.3529 37.9519 23.4933C37.9172 23.5284 37.9519 23.5987 37.9519 23.6338C37.9519 23.704 37.9172 23.8093 37.9172 23.8796C37.8132 23.8445 37.6746 23.8445 37.6746 23.6689C37.6053 23.4231 37.432 23.3529 37.1894 23.4933C37.224 23.5284 37.2587 23.5636 37.2587 23.6338C37.2933 23.704 37.2933 23.8093 37.2933 23.8796C37.224 23.8445 37.0854 23.8796 37.0507 23.8093C36.9121 23.6338 36.7735 23.6338 36.6002 23.5987C36.3922 23.5636 36.2189 23.4582 36.011 23.388C35.699 23.3178 35.4217 23.2475 35.1098 23.1773C34.07 22.9666 33.0649 22.6155 32.1291 22.1591C31.9212 22.0537 31.7132 21.9835 31.5053 22.1591C31.4706 22.1942 31.4359 22.1942 31.4359 22.2293C31.3666 22.6506 31.1933 23.0369 31.3666 23.4582C31.3666 23.4933 31.3666 23.4933 31.3666 23.5284C31.4359 24.2658 31.8519 24.8978 32.0945 25.565C32.1291 25.6352 32.1984 25.7405 32.2331 25.8107C32.3371 25.7756 32.441 25.7405 32.5104 25.7054C32.545 25.6703 32.6144 25.6352 32.6144 25.6001C32.7183 25.4245 32.7876 25.2138 32.8916 25.0383C32.9956 24.8276 33.0996 24.7925 33.2729 24.968C33.5848 25.2489 33.5848 25.3894 33.3422 25.7756C33.1689 26.0565 33.0303 26.3374 32.8916 26.6183C32.857 26.6885 32.8916 26.7939 32.9263 26.8641C32.9609 27.0046 33.0303 27.1801 33.0649 27.3206C33.1342 27.4961 33.2036 27.7068 33.2382 27.8824C33.2382 27.9526 33.2382 28.0579 33.2035 28.093C32.9956 28.3388 32.7877 28.5846 32.6144 28.8655C32.4757 29.0411 32.4064 29.2517 32.3371 29.4624C32.1984 29.954 31.8172 30.2349 31.3666 30.2349C31.0547 30.1998 30.8121 30.0242 30.6734 29.7433C30.5348 29.4975 30.4308 29.1815 30.3268 28.9357C30.2575 28.7953 30.1882 28.6197 30.0842 28.409C29.9802 28.6548 29.8763 28.8655 29.8069 29.0762C29.6337 29.4624 29.5297 29.8838 29.495 30.3051C29.495 30.3402 29.495 30.4104 29.4604 30.4104C29.2177 30.6211 29.3564 30.902 29.391 31.1478C29.391 31.3585 29.391 31.5691 29.391 31.8149C29.3564 32.3065 29.3217 32.7981 29.3217 33.3248C29.1831 33.3599 29.0791 33.395 28.9405 33.395C28.9405 33.5003 28.9751 33.6057 28.9751 33.6759C28.9751 33.8866 28.8365 34.0621 28.6286 34.0972C28.282 34.1323 28.0047 34.343 27.7274 34.5537C27.5541 34.659 27.3808 34.8346 27.1729 34.5888C27.1382 34.5537 27.0689 34.5537 26.9996 34.5537C26.9649 34.2728 27.0689 34.1323 27.3115 33.9919C27.5194 33.8866 27.7274 33.711 27.9354 33.5705C28.1087 33.4301 28.1086 33.3599 27.9007 33.2545C27.7621 33.1843 27.6581 33.1141 27.5195 33.0439C27.4155 32.9736 27.2768 32.9385 27.1035 32.8332C27.1382 32.6225 27.2075 32.3767 27.2768 32.1309C27.4501 31.4989 27.6581 30.902 27.8314 30.27C27.866 30.0944 27.97 29.954 28.0393 29.8135C28.2126 29.4975 28.2473 29.1464 28.2126 28.7602C28.178 28.409 28.2819 28.0228 28.3166 27.6717C28.3513 27.4259 28.4206 27.1801 28.4899 26.9343C28.4899 26.8641 28.4552 26.7588 28.4206 26.7588C27.9354 26.6183 27.4848 26.4428 26.9996 26.3374C26.8263 26.3023 26.7223 26.2672 26.7569 26.0214C26.8956 25.2489 27.0342 24.4765 27.1729 23.6689C27.2075 23.388 27.2422 23.072 27.2422 22.7911C27.2768 22.1591 27.5194 21.5622 27.7274 20.9652C27.7621 20.895 27.7621 20.7546 27.7274 20.6844C27.5541 20.3332 27.3461 20.0172 27.1382 19.6661C26.9649 19.3501 26.7916 19.0692 26.5837 18.7532C26.6183 18.8936 26.6183 19.0341 26.653 19.1745C26.4104 18.8936 26.1677 18.6127 26.1331 18.2265C26.0984 18.2967 26.0638 18.3669 26.0291 18.4723C25.7865 18.086 25.8211 17.7349 26.0638 17.3487C26.1331 17.2434 26.1331 17.138 26.1331 17.0327C26.1331 16.6113 26.1331 16.19 26.0984 15.7686C26.0984 15.6282 26.0291 15.5229 25.9598 15.4175C25.8558 15.2771 25.7518 15.2068 25.6478 15.0664C25.5439 14.9259 25.4399 14.8206 25.6132 14.645C25.7518 14.5046 25.8211 14.2939 25.9251 14.0833C26.0638 14.2237 26.1331 14.3641 26.2371 14.4695L26.2717 14.4344C26.2024 14.329 26.1331 14.2237 26.0984 14.0833C26.237 13.9077 26.3064 13.9428 26.653 14.4695C26.6183 14.329 26.5837 14.1886 26.549 14.0481C26.445 14.0481 26.4797 14.0481 26.5143 14.013Z" fill="#2B83C3"/>
    <path d="M56.044 11.6598C56.3213 11.8705 56.1133 12.0811 56.148 12.2918C56.3559 12.1865 56.5639 12.0811 56.7372 11.9407C56.7719 11.9407 56.7719 11.9758 56.8065 11.9758C56.6332 12.3269 56.4253 12.678 56.252 13.0643C56.3213 13.0643 56.4253 13.0643 56.4946 13.0292L56.5293 13.0994C56.4599 13.1696 56.356 13.2398 56.2866 13.275C55.5588 13.5207 54.8656 13.8367 54.1724 14.223C53.4446 14.6794 52.6821 15.0657 51.9196 15.487C51.8502 15.5221 51.7809 15.6275 51.7463 15.7328C51.6769 15.9435 51.677 16.119 51.6423 16.3648C51.0531 16.2595 50.7065 16.6808 50.3599 17.032C49.9786 17.4182 49.9093 17.9449 49.8747 18.4365C49.8054 19.0334 49.8054 19.6303 49.736 20.2272C49.7014 20.6134 49.5627 20.9996 49.4588 21.3508C49.4241 21.5614 49.4241 21.7721 49.4241 21.9828C49.3895 22.1935 49.3548 22.4041 49.3548 22.6148C49.3895 22.7904 49.4241 23.0362 49.5627 23.1415C49.8054 23.3522 49.944 23.6331 49.944 23.9491C49.944 24.3002 50.048 24.5811 50.2213 24.8971C50.5332 25.494 50.7758 26.126 50.8798 26.7932C50.8798 26.8985 50.9491 27.0038 51.0184 27.0741C51.261 27.4252 51.573 27.7412 51.8156 28.0923C51.9542 28.303 51.9889 28.5839 52.0236 28.8648C52.0582 29.1106 51.9889 29.3212 51.7116 29.4266C51.4343 29.5319 51.1917 29.4617 51.0184 29.2159C50.8105 28.935 50.6025 28.6541 50.4985 28.3381C50.3599 27.8816 50.0826 27.7061 49.6321 27.7763C49.3548 27.8114 49.0775 27.8114 48.8349 27.7763C48.7309 27.7763 48.5576 27.6359 48.5576 27.5656C48.3497 26.7581 47.8645 26.0909 47.5179 25.3887C47.4139 25.1429 47.2753 24.8971 47.1713 24.6513C47.1366 24.546 47.0326 24.5109 46.9287 24.4406C46.8593 24.5109 46.8247 24.5811 46.7554 24.6513C46.6514 24.7918 46.5821 24.8971 46.4781 25.0375C46.4088 25.178 46.3394 25.3536 46.2701 25.494C46.1315 25.7398 46.0275 25.9856 45.8542 26.1963C45.5076 26.5474 45.265 26.9336 45.1264 27.4252C45.0571 27.671 44.9877 27.8114 44.7105 27.8816C44.6065 27.9168 44.4679 28.0572 44.3985 28.1977C44.0519 28.8648 43.74 29.567 43.4281 30.2693C43.3587 30.4097 43.3241 30.5502 43.4281 30.6906C43.4974 30.796 43.4627 30.9715 43.4281 31.112C43.2894 31.6387 43.1508 32.1653 43.0122 32.692C42.9775 32.8676 42.9082 33.008 42.8042 33.1836C42.6309 33.5347 42.319 33.64 42.0764 33.5347C41.7991 33.4294 41.6258 33.0783 41.6951 32.7271C41.7991 32.3058 41.9377 31.8844 42.1457 31.5333C42.4923 30.9364 42.6309 30.2693 42.7002 29.6021C42.7695 29.0052 42.9082 28.4083 42.9775 27.7763C42.9775 27.671 43.0122 27.5305 42.9775 27.4954C42.8042 27.3198 42.8389 27.1092 42.9428 26.9336C43.1161 26.5123 43.2548 26.126 43.2201 25.6696C43.2201 25.5642 43.2548 25.4589 43.2894 25.3536C43.6014 24.6864 43.9133 24.0544 44.1906 23.3873C44.3292 23.0713 44.3639 22.685 44.4678 22.3339H43.948C44.0173 22.1935 44.0519 22.053 44.1212 21.9828C44.5372 21.5263 44.5372 20.9645 44.5025 20.4378C44.4679 19.9112 44.5718 19.4196 44.6411 18.928C44.7105 18.3662 44.8144 17.8395 44.8838 17.2777C44.9184 17.1022 44.8491 16.8564 44.7451 16.716C44.5718 16.3999 44.3985 16.119 44.1906 15.8733C44.0866 15.7328 43.9133 15.6275 43.74 15.5221C43.5667 15.4168 43.4627 15.2763 43.4281 15.0657C43.4281 14.9603 43.4281 14.8199 43.3588 14.7146C43.0468 14.3283 42.7349 13.9421 42.423 13.5558C41.8684 12.9238 41.3139 12.3269 40.7593 11.73C40.3088 11.2033 39.8928 10.6766 39.1997 10.4309C39.1303 10.3957 39.061 10.3255 39.0264 10.2904C39.0264 10.2553 39.061 10.2553 39.061 10.2202C39.1303 10.2202 39.1996 10.2553 39.269 10.2553C39.4076 10.2553 39.5462 10.2553 39.6849 10.2553C39.6156 10.1149 39.5809 9.9744 39.4769 9.86906C39.4076 9.76373 39.3383 9.6935 39.269 9.58817C39.2343 9.55305 39.2343 9.48283 39.2343 9.4126C39.269 9.37749 39.269 9.37749 39.3036 9.34238C39.4769 9.48283 39.6502 9.65839 39.8235 9.79884C39.8582 9.79884 39.8582 9.76373 39.8928 9.76373C39.7196 9.51794 39.5463 9.27216 39.373 9.02637C39.4076 8.99126 39.4423 8.95615 39.4769 8.92103C39.6502 9.0966 39.8582 9.27216 40.0661 9.44772C39.9968 9.16682 39.9275 8.92103 39.8582 8.67525C39.8928 8.67525 39.9275 8.64014 39.9968 8.64014C40.2048 9.02637 40.4127 9.41261 40.69 9.86906C40.8633 9.58817 41.0019 9.37749 41.1406 9.16682C41.1752 9.16682 41.2099 9.20193 41.2099 9.20193C41.1752 9.48283 41.1406 9.76373 41.0712 10.0095C40.9673 10.4309 41.1059 10.7118 41.3832 10.9927C41.7644 11.3438 42.1457 11.73 42.4923 12.0811C42.8042 12.3971 43.0815 12.7132 43.3588 13.0643C43.6707 13.4505 44.0519 13.6612 44.4678 13.8719C44.5372 13.907 44.6411 13.9421 44.6411 14.0123C44.7798 14.2932 45.0571 14.3985 45.265 14.539C45.5423 14.7497 45.8542 14.9252 46.0968 15.0657C46.2355 15.0306 46.4088 14.9603 46.6167 14.8901C46.5474 14.7146 46.4088 14.5741 46.3741 14.3985C46.3048 14.1176 46.3048 13.8367 46.2701 13.5558C46.2701 13.4856 46.3048 13.3803 46.2701 13.3101C46.0275 12.2918 47.1366 11.4842 48.0378 11.6949C48.523 11.8002 49.0082 11.9758 49.2508 12.5025C49.3895 12.8185 49.4588 13.0994 49.2855 13.4154C49.2162 13.5207 49.2508 13.6612 49.2162 13.8016C49.1468 14.0825 49.0775 14.3634 48.9735 14.6092C48.9735 14.6443 48.8002 14.6092 48.6963 14.6443C48.6616 14.7497 48.5923 14.855 48.5576 14.9955C48.8003 15.1008 49.0082 15.3115 49.2508 14.9603C49.2855 14.8901 49.4934 14.9252 49.5974 14.9252C50.152 14.9955 50.6025 14.7848 51.0878 14.5741C51.1571 14.539 51.1917 14.539 51.2611 14.5039C51.3997 14.4688 51.6076 14.4688 51.7116 14.3634C52.4741 13.6963 53.4792 13.4856 54.3804 13.1345C55.2122 12.8536 55.8361 12.5025 56.044 11.6598Z" fill="#E32020"/>
    <path d="M3.91648 39.2584C3.91648 39.434 3.84716 39.5745 3.74319 39.7149C3.63921 39.8554 3.50059 39.9256 3.32729 39.9256C3.25798 39.9256 3.11933 39.8905 2.91138 39.7851C2.70342 39.6798 2.53012 39.6096 2.42614 39.5745C2.32216 39.5393 2.18354 39.5042 2.0449 39.5042C1.90626 39.5042 1.80229 39.5393 1.69831 39.6096C1.59433 39.6798 1.55966 39.7851 1.55966 39.9256C1.55966 40.066 1.6983 40.2065 1.97558 40.3118C2.25285 40.4523 2.56477 40.5576 2.87671 40.698C3.18864 40.8385 3.46592 41.0141 3.70854 41.2247C3.91649 41.4354 4.05513 41.7514 4.05513 42.1377C4.05513 42.4537 3.98581 42.7697 3.81251 43.0155C3.63921 43.2612 3.39661 43.4719 3.08468 43.6124C2.77274 43.7528 2.42614 43.823 2.01023 43.823C1.73295 43.823 1.42103 43.7879 1.1091 43.6826C0.797165 43.5773 0.519896 43.4368 0.311941 43.2612C0.103986 43.0857 0 42.9101 0 42.6994C0 42.559 0.0693183 42.4185 0.173296 42.2781C0.277273 42.1376 0.450565 42.0674 0.623861 42.0674C0.762498 42.0674 0.866475 42.1025 0.970453 42.1377C1.07443 42.1728 1.17842 42.243 1.35172 42.3132C1.49035 42.3834 1.62898 42.4537 1.73296 42.4888C1.83694 42.5239 1.97559 42.559 2.11422 42.559C2.32218 42.559 2.46081 42.5239 2.56479 42.4537C2.63411 42.3834 2.70341 42.2781 2.70341 42.1377C2.70341 41.9972 2.56479 41.8568 2.28752 41.7514C2.01024 41.6461 1.6983 41.5056 1.38637 41.3652C1.03978 41.2247 0.762515 41.0492 0.55456 40.8034C0.346604 40.5927 0.207968 40.2767 0.207968 39.8905C0.207968 39.5745 0.277269 39.2584 0.450565 39.0127C0.623861 38.7669 0.831816 38.5562 1.14375 38.4158C1.42102 38.2753 1.76762 38.2051 2.14887 38.2051C2.42615 38.2051 2.66876 38.2402 2.94603 38.3104C3.2233 38.3806 3.46592 38.5211 3.63921 38.6615C3.84717 38.8722 3.91648 39.0478 3.91648 39.2584Z" fill="#F7AA11"/>
    <path d="M4.67871 41.7164V39.083C4.67871 38.8372 4.74804 38.6616 4.88668 38.4861C5.02532 38.3456 5.19861 38.2754 5.40657 38.2754C5.5452 38.2754 5.68383 38.3105 5.78781 38.3807C5.89179 38.451 5.99577 38.5563 6.03043 38.6616C6.09975 38.8021 6.1344 38.9425 6.1344 39.083V41.6813C6.1344 41.9622 6.23837 42.208 6.41167 42.3484C6.58497 42.524 6.82759 42.5942 7.0702 42.5942C7.2435 42.5942 7.38213 42.5591 7.52077 42.4889C7.65941 42.4186 7.76338 42.3133 7.86736 42.1728C7.93668 42.0324 8.00601 41.8568 8.00601 41.6813V39.083C8.00601 38.8372 8.07532 38.6616 8.21395 38.4861C8.35259 38.3456 8.52588 38.2754 8.73384 38.2754C8.87248 38.2754 9.0111 38.3105 9.11508 38.3807C9.21906 38.451 9.32304 38.5563 9.3577 38.6616C9.42702 38.8021 9.46167 38.9425 9.46167 39.083V41.7164C9.46167 42.1377 9.3577 42.524 9.18441 42.84C9.01111 43.156 8.73384 43.4018 8.38725 43.5773C8.04066 43.7529 7.59008 43.8231 7.10485 43.8231C6.34235 43.8231 5.7878 43.6476 5.37189 43.2613C4.85201 42.8751 4.67871 42.3484 4.67871 41.7164Z" fill="#F7AA11"/>
    <path d="M10.2939 42.9452V39.0829C10.2939 38.8371 10.3633 38.6615 10.5019 38.486C10.6405 38.3104 10.8138 38.2753 11.0218 38.2753C11.1951 38.2753 11.3684 38.3104 11.4724 38.4158C11.5763 38.5211 11.6457 38.6264 11.6803 38.802C11.9576 38.4158 12.4082 38.2051 13.0667 38.2051C13.4479 38.2051 13.7945 38.2753 14.0718 38.4509C14.3837 38.5913 14.5917 38.8371 14.765 39.118C14.9383 39.3989 15.0076 39.75 15.0076 40.1714V42.9452C15.0076 43.0857 14.9729 43.2261 14.9036 43.3666C14.8343 43.507 14.765 43.5773 14.661 43.6475C14.557 43.7177 14.4184 43.7528 14.2798 43.7528C14.0718 43.7528 13.8985 43.6826 13.7599 43.5421C13.6212 43.4017 13.5519 43.191 13.5519 42.9452V40.4172C13.5519 40.1011 13.4479 39.8554 13.3093 39.6798C13.136 39.5042 12.8934 39.434 12.6161 39.434C12.4428 39.434 12.2695 39.4691 12.1309 39.5745C11.9922 39.6447 11.8883 39.7851 11.819 39.9256C11.7496 40.066 11.715 40.2416 11.715 40.4523V42.9803C11.715 43.1208 11.6803 43.2612 11.611 43.4017C11.5417 43.5421 11.4723 43.6124 11.3684 43.6826C11.2644 43.7528 11.1258 43.7879 10.9871 43.7879C10.7792 43.7879 10.6059 43.7177 10.4672 43.5772C10.3633 43.3666 10.2939 43.191 10.2939 42.9452Z" fill="#F7AA11"/>
    <path d="M16.2898 39.7852H16.1165C15.8739 39.7852 15.6659 39.715 15.5273 39.6096C15.3886 39.5043 15.3193 39.2936 15.3193 39.0478C15.3193 38.8021 15.3886 38.5914 15.5273 38.486C15.6659 38.3807 15.8739 38.3105 16.1165 38.3105H16.2898V37.6082C16.2898 37.3625 16.3244 37.1518 16.3938 36.9411C16.4631 36.7304 16.5671 36.5549 16.7057 36.4144C16.8443 36.274 17.0176 36.1335 17.2256 36.0633C17.4335 35.9931 17.6415 35.9229 17.8841 35.9229C17.9881 35.9229 18.1267 35.9229 18.2307 35.958C18.3694 35.9931 18.4733 36.0282 18.5773 36.0633C18.6813 36.1335 18.7506 36.2037 18.8199 36.274C18.8892 36.3793 18.9239 36.4846 18.9239 36.6251C18.9239 37.1167 18.6813 37.3625 18.196 37.3625C18.0921 37.3625 17.9881 37.3976 17.9188 37.4678C17.8495 37.538 17.8148 37.6785 17.8148 37.8891V38.3105H18.2307C18.4733 38.3105 18.6813 38.3807 18.8199 38.486C18.9585 38.5914 19.0279 38.8021 19.0279 39.0478C19.0279 39.2936 18.9585 39.5043 18.8199 39.6096C18.6813 39.715 18.4733 39.7852 18.2307 39.7852H17.8148V42.8751C17.8148 43.0857 17.7455 43.2964 17.6068 43.4369C17.4682 43.5773 17.2602 43.6827 17.0523 43.6827C16.8097 43.6827 16.6364 43.6124 16.4978 43.4369C16.3591 43.2964 16.2898 43.0857 16.2898 42.8751V39.7852V39.7852Z" fill="#2B83C3"/>
    <path d="M24.1227 42.9098C24.1227 43.1204 24.0534 43.3311 23.9147 43.4716C23.7761 43.612 23.5682 43.7173 23.3602 43.7173C23.1522 43.7173 23.0136 43.6471 22.9096 43.5067C22.8057 43.3662 22.7017 43.2258 22.667 43.0853C22.4937 43.296 22.3204 43.4716 22.0778 43.5418C21.8698 43.6471 21.6272 43.6822 21.3153 43.6822C20.9687 43.6822 20.6568 43.612 20.3795 43.4716C20.1022 43.3311 19.825 43.1555 19.617 42.9098C19.4091 42.664 19.2358 42.3831 19.0971 42.0671C18.9585 41.7511 18.9238 41.3999 18.9238 41.0137C18.9238 40.6275 18.9931 40.2763 19.0971 39.9603C19.2358 39.6443 19.3744 39.3634 19.617 39.1176C19.825 38.8719 20.1022 38.6963 20.3795 38.5558C20.6568 38.4154 21.0034 38.3452 21.3153 38.3452C21.6272 38.3452 21.8698 38.3803 22.0778 38.4505C22.2858 38.5207 22.4937 38.6612 22.667 38.8367C22.7363 38.7314 22.8057 38.591 22.9096 38.4856C23.0136 38.3803 23.1869 38.3101 23.3602 38.3101C23.6028 38.3101 23.7761 38.3803 23.9147 38.5558C24.0534 38.6963 24.1227 38.907 24.1227 39.1176V42.9098ZM21.038 39.855C20.8994 39.9252 20.7954 39.9954 20.6914 40.1359C20.5875 40.2412 20.5182 40.3817 20.4835 40.5221C20.4488 40.6626 20.4142 40.8381 20.4142 40.9786C20.4142 41.1541 20.4488 41.2946 20.4835 41.435C20.5182 41.5755 20.5875 41.7159 20.6914 41.8213C20.7954 41.9266 20.8994 42.032 21.038 42.1022C21.1767 42.1724 21.3153 42.2075 21.4886 42.2075C21.6619 42.2075 21.8005 42.1724 21.9392 42.1022C22.0778 42.032 22.1818 41.9617 22.2858 41.8213C22.3897 41.7159 22.4591 41.5755 22.4937 41.435C22.5284 41.2946 22.563 41.119 22.563 40.9786C22.563 40.803 22.5284 40.6626 22.4937 40.5221C22.4591 40.3817 22.3897 40.2412 22.2858 40.1359C22.1818 40.0306 22.0778 39.9252 21.9392 39.855C21.8005 39.7848 21.6619 39.7497 21.4886 39.7497C21.35 39.7497 21.1767 39.7848 21.038 39.855Z" fill="#2B83C3"/>
    <path d="M24.9209 39.1176C24.9209 38.907 24.9902 38.6963 25.1288 38.5558C25.2675 38.4154 25.4754 38.3101 25.6834 38.3101C25.8914 38.3101 26.0647 38.3803 26.2033 38.5207C26.3419 38.6612 26.4112 38.8016 26.4806 38.9421C26.6192 38.7314 26.7925 38.591 27.0351 38.4856C27.2777 38.3803 27.5203 38.3452 27.8323 38.3452C28.0749 38.3452 28.3175 38.3803 28.5948 38.4856C28.872 38.591 29.1147 38.7314 29.2879 38.9772C29.3919 38.907 29.4959 38.8367 29.5999 38.7665C29.7039 38.6963 29.8078 38.6261 29.9465 38.5558C30.0851 38.4856 30.1891 38.4505 30.3277 38.4154C30.4664 38.3803 30.6397 38.3452 30.7783 38.3452C31.0556 38.3452 31.2982 38.3803 31.5408 38.4505C31.7834 38.5207 31.9914 38.6261 32.1647 38.7665C32.338 38.907 32.4766 39.0825 32.5806 39.3283C32.6845 39.539 32.7192 39.8199 32.7192 40.1359V42.9449C32.7192 43.1555 32.6499 43.3662 32.5112 43.5067C32.3726 43.6471 32.1647 43.7173 31.9567 43.7173C31.7141 43.7173 31.5408 43.6471 31.4022 43.5067C31.2635 43.3662 31.1942 43.1907 31.1942 42.9449V40.5924C31.1942 40.3466 31.1249 40.1359 30.9863 39.9603C30.8476 39.7848 30.6743 39.6794 30.397 39.6794C30.1544 39.6794 29.9465 39.7848 29.8078 39.9603C29.6692 40.1359 29.5999 40.3466 29.5999 40.5924V42.9449C29.5999 43.1555 29.5306 43.3311 29.3919 43.5067C29.2533 43.6471 29.0453 43.7173 28.8374 43.7173C28.5948 43.7173 28.4215 43.6471 28.2828 43.5067C28.1442 43.3662 28.0749 43.1907 28.0749 42.9449V40.5924C28.0749 40.3466 28.0056 40.1359 27.8669 39.9603C27.7283 39.7848 27.555 39.6794 27.2777 39.6794C27.0351 39.6794 26.8271 39.7848 26.6885 39.9603C26.5499 40.1359 26.4806 40.3466 26.4806 40.5924V42.9449C26.4806 43.1555 26.4112 43.3311 26.2726 43.5067C26.134 43.6471 25.926 43.7173 25.7181 43.7173C25.4754 43.7173 25.3022 43.6471 25.1635 43.4716C25.0249 43.3311 24.9555 43.1204 24.9555 42.9098V39.1176H24.9209Z" fill="#2B83C3"/>
    <path d="M33.3779 36.5193C33.4126 36.414 33.4819 36.3086 33.5859 36.2384C33.6552 36.1682 33.7592 36.098 33.8631 36.0277C33.9671 35.9926 34.1057 35.9575 34.2097 35.9575C34.3484 35.9575 34.4523 35.9926 34.5563 36.0277C34.6603 36.0629 34.7643 36.1331 34.8336 36.2384C34.9029 36.3086 34.9722 36.414 35.0416 36.5193C35.0762 36.6247 35.1109 36.7651 35.1109 36.8704C35.1109 37.0109 35.0762 37.1162 35.0416 37.2216C35.0069 37.3269 34.9376 37.4322 34.8336 37.5376C34.7643 37.6078 34.6603 37.678 34.5563 37.7482C34.4523 37.7834 34.3137 37.8185 34.2097 37.8185C34.0711 37.8185 33.9671 37.7834 33.8631 37.7482C33.7592 37.7131 33.6552 37.6429 33.5859 37.5376C33.5165 37.4673 33.4472 37.362 33.3779 37.2216C33.3432 37.1162 33.3086 36.9758 33.3086 36.8704C33.3086 36.73 33.3432 36.6247 33.3779 36.5193ZM33.4472 39.1176C33.4472 38.9069 33.5165 38.6963 33.6552 38.5558C33.7938 38.4154 34.0018 38.31 34.2097 38.31C34.4523 38.31 34.6256 38.3803 34.7643 38.5558C34.9029 38.6963 34.9722 38.9069 34.9722 39.1176V42.9097C34.9722 43.1204 34.9029 43.3311 34.7643 43.4715C34.6256 43.612 34.4177 43.7173 34.2097 43.7173C33.9671 43.7173 33.7938 43.6471 33.6552 43.4715C33.5165 43.3311 33.4472 43.1204 33.4472 42.9097V39.1176Z" fill="#2B83C3"/>
    <path d="M35.7686 36.7651C35.7686 36.5544 35.8379 36.3438 35.9765 36.2033C36.1151 36.0629 36.3231 35.9575 36.5311 35.9575C36.7737 35.9575 36.947 36.0277 37.0856 36.2033C37.2242 36.3438 37.2936 36.5544 37.2936 36.7651V42.9097C37.2936 43.1204 37.2242 43.3311 37.0856 43.4715C36.947 43.612 36.739 43.7173 36.5311 43.7173C36.2884 43.7173 36.1151 43.6471 35.9765 43.4715C35.8379 43.3311 35.7686 43.1204 35.7686 42.9097V36.7651Z" fill="#2B83C3"/>
    <path d="M39.3717 43.1907L38.0546 40.0306C37.9506 39.82 37.8813 39.6093 37.812 39.4689C37.7427 39.2933 37.708 39.1528 37.708 39.0826C37.708 38.8368 37.7773 38.6613 37.9506 38.5559C38.0893 38.4155 38.2972 38.3804 38.4705 38.3804C38.8518 38.3804 39.129 38.591 39.2677 38.9773L40.1688 41.3649L41.0353 39.2582C41.1393 39.0124 41.2433 38.8017 41.3819 38.6613C41.5205 38.4857 41.6938 38.4155 41.9018 38.4155C42.1444 38.4155 42.3177 38.4857 42.491 38.6262C42.6296 38.7666 42.6989 38.9773 42.6989 39.188C42.6989 39.2933 42.6643 39.4337 42.6296 39.5391C42.595 39.6795 42.5603 39.7849 42.491 39.8551L40.2035 45.2273C40.1688 45.3326 40.0995 45.4379 40.0648 45.5082C40.0302 45.6135 39.9609 45.6837 39.9262 45.7539C39.8569 45.8242 39.7876 45.8593 39.7183 45.9295C39.6143 45.9646 39.5103 45.9997 39.3717 45.9997C39.233 45.9997 39.1291 45.9646 39.0251 45.9295C38.9211 45.8944 38.8518 45.8242 38.7825 45.7539C38.7131 45.6837 38.6785 45.6135 38.6438 45.5433C38.6092 45.473 38.6092 45.4028 38.6092 45.3326C38.6092 45.1921 38.6438 45.0868 38.6785 44.9464C38.7131 44.841 38.7825 44.6655 38.8864 44.4548L39.3717 43.1907Z" fill="#2B83C3"/>
    <path d="M47.309 39.1189C47.309 39.2945 47.2743 39.4349 47.1703 39.5754C47.0664 39.7158 46.9277 39.7861 46.7891 39.7861C46.6851 39.7861 46.5118 39.7509 46.2692 39.6456C46.0266 39.5403 45.8186 39.5052 45.6453 39.5052C45.4027 39.5052 45.1601 39.5754 44.9868 39.7158C44.8135 39.8563 44.6749 40.0318 44.5709 40.2776C44.4669 40.4883 44.4323 40.7341 44.4323 41.015C44.4323 41.4012 44.5362 41.7523 44.7442 42.0332C44.9521 42.3141 45.2641 42.4897 45.6107 42.4897C45.7146 42.4897 45.8186 42.4546 45.9226 42.4195C46.0266 42.3844 46.1652 42.3493 46.3385 42.279C46.5118 42.2088 46.6158 42.1737 46.6504 42.1737C46.7544 42.1737 46.8584 42.2088 46.9624 42.2439C47.0663 42.3141 47.1357 42.3844 47.205 42.4897C47.2743 42.595 47.2743 42.7004 47.2743 42.8057C47.2743 43.0164 47.1703 43.2271 46.9624 43.3675C46.7544 43.508 46.5118 43.6133 46.2345 43.6835C45.9573 43.7537 45.7146 43.7889 45.5067 43.7889C45.0214 43.7889 44.5709 43.6484 44.1896 43.4026C43.8084 43.1568 43.4965 42.8057 43.2885 42.3844C43.0805 41.963 42.9766 41.5066 42.9766 40.9799C42.9766 40.6288 43.0459 40.2776 43.1499 39.9265C43.2885 39.5754 43.4618 39.2945 43.6697 39.0136C43.9124 38.7327 44.1896 38.522 44.5016 38.3816C44.8135 38.2411 45.1601 38.1709 45.5413 38.1709C45.7493 38.1709 46.0266 38.206 46.3039 38.2762C46.5811 38.3465 46.8237 38.4518 47.0317 38.5571C47.205 38.7327 47.309 38.9083 47.309 39.1189Z" fill="#ED7221"/>
    <path d="M47.8984 42.9458V36.7309C47.8984 36.4851 47.9677 36.3096 48.1064 36.134C48.245 35.9936 48.4183 35.9233 48.6263 35.9233C48.7649 35.9233 48.9036 35.9585 49.0075 36.0287C49.1115 36.0989 49.2155 36.2042 49.2502 36.3096C49.3195 36.45 49.3541 36.5554 49.3541 36.7309V42.9458C49.3541 43.0862 49.3195 43.2267 49.2502 43.3671C49.1808 43.5076 49.1115 43.5778 49.0075 43.648C48.9036 43.7183 48.7649 43.7534 48.6263 43.7534C48.4183 43.7534 48.245 43.6831 48.1064 43.5427C47.9677 43.3671 47.8984 43.1916 47.8984 42.9458Z" fill="#ED7221"/>
    <path d="M50.2207 41.7169V39.0835C50.2207 38.8377 50.29 38.6621 50.4286 38.4866C50.5673 38.311 50.7406 38.2759 50.9485 38.2759C51.0872 38.2759 51.2258 38.311 51.3298 38.3812C51.4338 38.4514 51.5377 38.5568 51.5724 38.6621C51.6417 38.8026 51.6764 38.943 51.6764 39.0835V41.6818C51.6764 41.9627 51.7804 42.2084 51.9537 42.3489C52.127 42.5245 52.3696 42.5947 52.6122 42.5947C52.7855 42.5947 52.9241 42.5596 53.0628 42.4893C53.2014 42.4191 53.3054 42.3138 53.4094 42.1733C53.4787 42.0329 53.548 41.8573 53.548 41.6818V39.0835C53.548 38.8377 53.6173 38.6621 53.7559 38.4866C53.8946 38.3461 54.0679 38.2759 54.2758 38.2759C54.4145 38.2759 54.5531 38.311 54.6571 38.3812C54.7611 38.4514 54.865 38.5568 54.8997 38.6621C54.969 38.8026 55.0037 38.943 55.0037 39.0835V41.7169C55.0037 42.1382 54.8997 42.5245 54.7264 42.8405C54.5531 43.1565 54.2758 43.4023 53.9292 43.5778C53.5826 43.7534 53.1321 43.8236 52.6468 43.8236C51.8843 43.8236 51.3298 43.6481 50.9139 43.2618C50.4287 42.8756 50.2207 42.3489 50.2207 41.7169Z" fill="#ED7221"/>
    <path d="M55.8691 42.9458V36.7309C55.8691 36.4851 55.9385 36.3096 56.0771 36.134C56.2157 35.9936 56.389 35.9233 56.597 35.9233C56.7356 35.9233 56.8743 35.9585 56.9782 36.0287C57.0822 36.0989 57.1862 36.2042 57.2209 36.3096C57.2902 36.45 57.3248 36.5554 57.3248 36.7309V38.6972C57.4981 38.5216 57.7061 38.4163 57.9487 38.311C58.1913 38.2407 58.4339 38.1705 58.6765 38.1705C59.1618 38.1705 59.5777 38.311 59.9243 38.5919C60.2709 38.8728 60.5481 39.2239 60.7214 39.6452C60.8947 40.1017 60.9987 40.5582 60.9987 41.0497C60.9987 41.5062 60.8947 41.9626 60.7214 42.384C60.5135 42.8053 60.2362 43.1565 59.8896 43.4022C59.543 43.648 59.1271 43.7885 58.6765 43.7885C58.3993 43.7885 58.1567 43.7183 57.914 43.6129C57.6714 43.5076 57.4981 43.332 57.3595 43.1214C57.2555 43.5076 57.0129 43.7183 56.6316 43.7183C56.4237 43.7183 56.2504 43.648 56.1118 43.5076C55.9038 43.3671 55.8691 43.1916 55.8691 42.9458ZM57.2902 40.9795C57.2902 41.3657 57.3942 41.7169 57.5674 42.0329C57.7754 42.3489 58.0527 42.4893 58.3993 42.4893C58.6419 42.4893 58.8498 42.4191 59.0231 42.2787C59.1964 42.1382 59.3351 41.9626 59.4044 41.7169C59.4737 41.5062 59.543 41.2604 59.543 41.0146C59.543 40.7688 59.5084 40.523 59.4044 40.3124C59.3004 40.1017 59.1964 39.891 59.0231 39.7506C58.8498 39.6101 58.6419 39.5399 58.3993 39.5399C58.1566 39.5399 57.9487 39.6101 57.7754 39.7506C57.6021 39.891 57.4635 40.0666 57.3942 40.2773C57.3248 40.4879 57.2902 40.7337 57.2902 40.9795Z" fill="#ED7221"/>
</svg>
