<svg width="133" height="22" viewBox="0 0 133 22" fill="none" xmlns="http://www.w3.org/2000/svg">
    <path d="M8.53922 7.34559C8.53922 7.72725 8.38808 8.03257 8.16138 8.3379C7.93467 8.64322 7.63243 8.79588 7.25459 8.79588C7.10346 8.79588 6.80117 8.71955 6.34776 8.49056C5.89435 8.26156 5.51649 8.1089 5.28979 8.03257C5.06308 7.95624 4.76083 7.87991 4.45855 7.87991C4.15628 7.87991 3.92957 7.95624 3.70287 8.1089C3.47616 8.26156 3.40058 8.49056 3.40058 8.79588C3.40058 9.1012 3.70286 9.40653 4.30741 9.63552C4.91195 9.94084 5.59205 10.1698 6.27217 10.4752C6.95228 10.7805 7.55685 11.1621 8.08583 11.6201C8.53924 12.0781 8.84151 12.7651 8.84151 13.6047C8.84151 14.2917 8.69036 14.9787 8.31252 15.513C7.93468 16.0473 7.40572 16.5053 6.7256 16.8106C6.04549 17.116 5.28978 17.2686 4.38296 17.2686C3.77841 17.2686 3.09831 17.1923 2.4182 16.9633C1.73808 16.7343 1.13354 16.429 0.680134 16.0473C0.226724 15.6657 0 15.284 0 14.826C0 14.5207 0.151137 14.2154 0.377842 13.9101C0.604547 13.6047 0.98238 13.4521 1.36022 13.4521C1.6625 13.4521 1.8892 13.5284 2.11591 13.6047C2.34261 13.6811 2.56934 13.8337 2.94719 13.9864C3.24946 14.139 3.55171 14.2917 3.77842 14.368C4.00512 14.4444 4.30743 14.5207 4.6097 14.5207C5.06311 14.5207 5.36537 14.4444 5.59208 14.2917C5.74322 14.139 5.89432 13.9101 5.89432 13.6047C5.89432 13.2994 5.59209 12.9941 4.98754 12.7651C4.38299 12.5361 3.70285 12.2308 3.02274 11.9255C2.26705 11.6201 1.66253 11.2385 1.20912 10.7042C0.755711 10.2462 0.453438 9.55919 0.453438 8.71955C0.453438 8.03257 0.604538 7.34559 0.98238 6.81128C1.36022 6.27696 1.81363 5.81897 2.49375 5.51365C3.09829 5.20832 3.854 5.05566 4.68525 5.05566C5.2898 5.05566 5.81877 5.132 6.42331 5.28466C7.02786 5.43732 7.55684 5.74264 7.93468 6.04797C8.38809 6.50595 8.53922 6.88761 8.53922 7.34559Z" fill="#F7AA11"/>
    <path d="M10.2012 12.6884V6.96362C10.2012 6.4293 10.3523 6.04765 10.6546 5.66599C10.9569 5.36067 11.3347 5.20801 11.7881 5.20801C12.0904 5.20801 12.3927 5.28434 12.6194 5.437C12.8461 5.58966 13.0728 5.81865 13.1484 6.04765C13.2995 6.35297 13.3751 6.65829 13.3751 6.96362V12.6121C13.3751 13.2228 13.6017 13.7571 13.9796 14.0624C14.3574 14.444 14.8864 14.5967 15.4154 14.5967C15.7933 14.5967 16.0955 14.5204 16.3978 14.3677C16.7001 14.2151 16.9268 13.9861 17.1535 13.6807C17.3046 13.3754 17.4558 12.9938 17.4558 12.6121V6.96362C17.4558 6.4293 17.6069 6.04765 17.9092 5.66599C18.2114 5.36067 18.5893 5.20801 19.0427 5.20801C19.345 5.20801 19.6472 5.28434 19.8739 5.437C20.1006 5.58966 20.3273 5.81865 20.4029 6.04765C20.554 6.35297 20.6296 6.65829 20.6296 6.96362V12.6884C20.6296 13.6044 20.4029 14.4441 20.0251 15.131C19.6472 15.818 19.0427 16.3523 18.287 16.734C17.5313 17.1156 16.5489 17.2683 15.491 17.2683C13.8285 17.2683 12.6194 16.8866 11.7125 16.047C10.579 15.2074 10.2012 14.0624 10.2012 12.6884Z" fill="#F7AA11"/>
    <path d="M22.4443 15.3604V6.96394C22.4443 6.42962 22.5955 6.04797 22.8977 5.66631C23.2 5.28466 23.5778 5.20833 24.0313 5.20833C24.4091 5.20833 24.787 5.28466 25.0137 5.51365C25.2404 5.74264 25.3915 5.97164 25.4671 6.35329C26.0716 5.51365 27.054 5.05566 28.4898 5.05566C29.3211 5.05566 30.0768 5.20833 30.6813 5.58998C31.3614 5.89531 31.8148 6.42962 32.1927 7.04027C32.5705 7.65092 32.7216 8.41423 32.7216 9.3302V15.3604C32.7216 15.6657 32.6461 15.971 32.4949 16.2763C32.3438 16.5816 32.1926 16.7343 31.9659 16.887C31.7392 17.0396 31.437 17.116 31.1347 17.116C30.6813 17.116 30.3034 16.9633 30.0012 16.658C29.6989 16.3527 29.5478 15.8947 29.5478 15.3604V9.86452C29.5478 9.17754 29.3211 8.64322 29.0188 8.26157C28.641 7.87991 28.112 7.72725 27.5074 7.72725C27.1296 7.72725 26.7517 7.80358 26.4495 8.03257C26.1472 8.18524 25.9205 8.49056 25.7694 8.79588C25.6182 9.10121 25.5426 9.48286 25.5426 9.94085V15.4367C25.5426 15.742 25.4671 16.0473 25.3159 16.3526C25.1648 16.658 25.0136 16.8106 24.7869 16.9633C24.5602 17.116 24.258 17.1923 23.9557 17.1923C23.5023 17.1923 23.1245 17.0396 22.8222 16.7343C22.5955 16.2763 22.4443 15.8947 22.4443 15.3604Z" fill="#F7AA11"/>
    <path d="M35.5173 8.49113H35.1394C34.6105 8.49113 34.157 8.33847 33.8548 8.10948C33.5525 7.88048 33.4014 7.4225 33.4014 6.88818C33.4014 6.35387 33.5525 5.89588 33.8548 5.66689C34.157 5.4379 34.6105 5.28523 35.1394 5.28523H35.5173V3.75862C35.5173 3.2243 35.5928 2.76631 35.744 2.30833C35.8951 1.85034 36.1218 1.46869 36.4241 1.16336C36.7264 0.858037 37.1042 0.552713 37.5576 0.400052C38.011 0.24739 38.4645 0.0947266 38.9934 0.0947266C39.2202 0.0947266 39.5224 0.0947254 39.7491 0.171056C40.0514 0.247387 40.2781 0.323721 40.5048 0.400052C40.7315 0.552713 40.8826 0.705374 41.0338 0.858036C41.1849 1.08703 41.2605 1.31602 41.2605 1.62135C41.2605 2.68998 40.7315 3.22429 39.6735 3.22429C39.4468 3.22429 39.2201 3.30063 39.069 3.45329C38.9179 3.60595 38.8423 3.91127 38.8423 4.36926V5.28523H39.7491C40.2781 5.28523 40.7315 5.4379 41.0338 5.66689C41.336 5.89588 41.4872 6.35387 41.4872 6.88818C41.4872 7.4225 41.336 7.88048 41.0338 8.10948C40.7315 8.33847 40.2781 8.49113 39.7491 8.49113H38.8423V15.2083C38.8423 15.6662 38.6911 16.1242 38.3889 16.4296C38.0866 16.7349 37.6332 16.9639 37.1798 16.9639C36.6508 16.9639 36.273 16.8112 35.9707 16.4296C35.6684 16.1242 35.5173 15.6662 35.5173 15.2083V8.49113Z" fill="#2B83C3"/>
    <path d="M52.596 15.2835C52.596 15.7415 52.4448 16.1995 52.1426 16.5048C51.8403 16.8102 51.3869 17.0392 50.9335 17.0392C50.4801 17.0392 50.1778 16.8865 49.9511 16.5812C49.7244 16.2758 49.4977 15.9705 49.4221 15.6652C49.0443 16.1232 48.6664 16.5048 48.1374 16.6575C47.684 16.8865 47.155 16.9628 46.4749 16.9628C45.7192 16.9628 45.0391 16.8102 44.4346 16.5048C43.83 16.1995 43.2255 15.8179 42.7721 15.2835C42.3187 14.7492 41.9409 14.1386 41.6386 13.4516C41.3363 12.7646 41.2607 12.0013 41.2607 11.1617C41.2607 10.322 41.4119 9.55871 41.6386 8.87173C41.9409 8.18475 42.2431 7.57411 42.7721 7.03979C43.2255 6.50547 43.83 6.12382 44.4346 5.81849C45.0391 5.51317 45.7948 5.36051 46.4749 5.36051C47.155 5.36051 47.684 5.43684 48.1374 5.5895C48.5909 5.74217 49.0443 6.04749 49.4221 6.42914C49.5733 6.20015 49.7244 5.89483 49.9511 5.66583C50.1778 5.43684 50.5556 5.28418 50.9335 5.28418C51.4625 5.28418 51.8403 5.43684 52.1426 5.81849C52.4448 6.12382 52.596 6.5818 52.596 7.03979V15.2835ZM45.8704 8.64274C45.5681 8.79541 45.3414 8.94806 45.1147 9.25339C44.888 9.48238 44.7369 9.7877 44.6613 10.093C44.5857 10.3984 44.5102 10.78 44.5102 11.0853C44.5102 11.467 44.5857 11.7723 44.6613 12.0776C44.7369 12.383 44.888 12.6883 45.1147 12.9173C45.3414 13.1463 45.5681 13.3753 45.8704 13.5279C46.1727 13.6806 46.4749 13.7569 46.8528 13.7569C47.2306 13.7569 47.5329 13.6806 47.8352 13.5279C48.1374 13.3753 48.3641 13.2226 48.5908 12.9173C48.8175 12.6883 48.9687 12.383 49.0443 12.0776C49.1198 11.7723 49.1954 11.3907 49.1954 11.0853C49.1954 10.7037 49.1198 10.3984 49.0443 10.093C48.9687 9.7877 48.8175 9.48238 48.5908 9.25339C48.3641 9.02439 48.1374 8.79541 47.8352 8.64274C47.5329 8.49008 47.2306 8.41375 46.8528 8.41375C46.5505 8.41375 46.1727 8.49008 45.8704 8.64274Z" fill="#2B83C3"/>
    <path d="M54.334 7.03979C54.334 6.5818 54.4851 6.12382 54.7874 5.81849C55.0896 5.51317 55.5431 5.28418 55.9965 5.28418C56.4499 5.28418 56.8278 5.43684 57.13 5.74216C57.4323 6.04749 57.5834 6.35281 57.7346 6.65813C58.0368 6.20015 58.4147 5.89483 58.9436 5.66583C59.4726 5.43684 60.0016 5.36051 60.6817 5.36051C61.2107 5.36051 61.7397 5.43684 62.3442 5.66583C62.9488 5.89483 63.4777 6.20015 63.8556 6.73447C64.0823 6.58181 64.309 6.42914 64.5357 6.27648C64.7624 6.12382 64.9891 5.97116 65.2914 5.81849C65.5937 5.66583 65.8204 5.5895 66.1226 5.51317C66.4249 5.43684 66.8027 5.36051 67.105 5.36051C67.7096 5.36051 68.2386 5.43684 68.7675 5.5895C69.2965 5.74217 69.7499 5.97115 70.1278 6.27648C70.5056 6.5818 70.8079 6.96346 71.0346 7.49778C71.2613 7.95576 71.3369 8.56641 71.3369 9.25339V15.3599C71.3369 15.8179 71.1857 16.2758 70.8834 16.5812C70.5812 16.8865 70.1278 17.0392 69.6744 17.0392C69.1454 17.0392 68.7676 16.8865 68.4653 16.5812C68.163 16.2758 68.0118 15.8942 68.0118 15.3599V10.2457C68.0118 9.71137 67.8607 9.25339 67.5585 8.87173C67.2562 8.49008 66.8783 8.26109 66.2738 8.26109C65.7448 8.26109 65.2914 8.49008 64.9891 8.87173C64.6868 9.25339 64.5357 9.71137 64.5357 10.2457V15.3599C64.5357 15.8179 64.3846 16.1995 64.0823 16.5812C63.78 16.8865 63.3266 17.0392 62.8732 17.0392C62.3442 17.0392 61.9664 16.8865 61.6641 16.5812C61.3619 16.2758 61.2107 15.8942 61.2107 15.3599V10.2457C61.2107 9.71137 61.0596 9.25339 60.7573 8.87173C60.455 8.49008 60.0772 8.26109 59.4726 8.26109C58.9436 8.26109 58.4902 8.49008 58.188 8.87173C57.8857 9.25339 57.7346 9.71137 57.7346 10.2457V15.3599C57.7346 15.8179 57.5834 16.1995 57.2811 16.5812C56.9789 16.8865 56.5255 17.0392 56.072 17.0392C55.5431 17.0392 55.1652 16.8865 54.863 16.5048C54.5607 16.1995 54.4095 15.7415 54.4095 15.2835V7.03979H54.334Z" fill="#2B83C3"/>
    <path d="M72.7732 1.3922C72.8487 1.16321 72.9999 0.93421 73.2266 0.781549C73.3777 0.628887 73.6044 0.476226 73.8311 0.323564C74.0579 0.247233 74.3601 0.170898 74.5868 0.170898C74.8891 0.170898 75.1158 0.247233 75.3425 0.323564C75.5692 0.399895 75.7959 0.552556 75.9471 0.781549C76.0982 0.93421 76.2494 1.16321 76.4005 1.3922C76.4761 1.62119 76.5516 1.92652 76.5516 2.15551C76.5516 2.46083 76.4761 2.68983 76.4005 2.91882C76.3249 3.14781 76.1738 3.3768 75.9471 3.60579C75.7959 3.75845 75.5692 3.91112 75.3425 4.06378C75.1158 4.14011 74.8135 4.21644 74.5868 4.21644C74.2846 4.21644 74.0579 4.14011 73.8311 4.06378C73.6044 3.98745 73.3777 3.83478 73.2266 3.60579C73.0755 3.45313 72.9243 3.22414 72.7732 2.91882C72.6976 2.68983 72.6221 2.3845 72.6221 2.15551C72.6221 1.85018 72.6976 1.62119 72.7732 1.3922ZM72.9243 7.04069C72.9243 6.5827 73.0755 6.12471 73.3778 5.81939C73.68 5.51407 74.1334 5.28508 74.5868 5.28508C75.1158 5.28508 75.4936 5.43774 75.7959 5.81939C76.0982 6.12471 76.2493 6.5827 76.2493 7.04069V15.2844C76.2493 15.7424 76.0982 16.2004 75.7959 16.5057C75.4936 16.8111 75.0402 17.04 74.5868 17.04C74.0579 17.04 73.68 16.8874 73.3778 16.5057C73.0755 16.2004 72.9243 15.7424 72.9243 15.2844V7.04069Z" fill="#2B83C3"/>
    <path d="M77.9873 1.92651C77.9873 1.46853 78.1384 1.01054 78.4407 0.705219C78.743 0.399895 79.1964 0.170898 79.6498 0.170898C80.1788 0.170898 80.5566 0.323564 80.8589 0.705219C81.1612 1.01054 81.3123 1.46853 81.3123 1.92651V15.2844C81.3123 15.7424 81.1612 16.2004 80.8589 16.5057C80.5566 16.8111 80.1032 17.04 79.6498 17.04C79.1208 17.04 78.743 16.8874 78.4407 16.5057C78.1384 16.2004 77.9873 15.7424 77.9873 15.2844V1.92651Z" fill="#2B83C3"/>
    <path d="M85.847 15.8939L82.9754 9.02408C82.7487 8.5661 82.5976 8.10811 82.4465 7.80278C82.2953 7.42113 82.2197 7.1158 82.2197 6.96314C82.2197 6.42883 82.3709 6.04717 82.7487 5.81818C83.051 5.51285 83.5044 5.43652 83.8822 5.43652C84.7135 5.43652 85.318 5.89451 85.6203 6.73415L87.5851 11.9247L89.4743 7.3448C89.701 6.81048 89.9277 6.3525 90.23 6.04717C90.5323 5.66552 90.9101 5.51285 91.3635 5.51285C91.8925 5.51285 92.2704 5.66552 92.6482 5.97084C92.9505 6.27617 93.1016 6.73415 93.1016 7.19214C93.1016 7.42113 93.026 7.72645 92.9504 7.95545C92.8749 8.26077 92.7993 8.48977 92.6482 8.64243L87.6607 20.3211C87.5851 20.5501 87.434 20.779 87.3584 20.9317C87.2828 21.1607 87.1317 21.3134 87.0561 21.466C86.905 21.6187 86.7539 21.695 86.6027 21.8477C86.376 21.924 86.1493 22.0003 85.847 22.0003C85.5448 22.0003 85.3181 21.924 85.0914 21.8477C84.8647 21.7714 84.7135 21.6187 84.5624 21.466C84.4112 21.3134 84.3357 21.1607 84.2601 21.008C84.1845 20.8554 84.1845 20.7027 84.1845 20.55C84.1845 20.2447 84.2601 20.0157 84.3357 19.7104C84.4112 19.4814 84.5624 19.0998 84.7891 18.6418L85.847 15.8939Z" fill="#2B83C3"/>
    <path d="M103.151 7.03847C103.151 7.42013 103.076 7.72545 102.849 8.03078C102.622 8.3361 102.32 8.48876 102.018 8.48876C101.791 8.48876 101.413 8.41243 100.884 8.18344C100.355 7.95444 99.9017 7.87812 99.5239 7.87812C98.9949 7.87812 98.4659 8.03078 98.088 8.3361C97.7102 8.64143 97.408 9.02308 97.1813 9.5574C96.9545 10.0154 96.879 10.5497 96.879 11.1604C96.879 12 97.1057 12.7633 97.5591 13.3739C98.0125 13.9846 98.6926 14.3663 99.4483 14.3663C99.675 14.3663 99.9017 14.2899 100.128 14.2136C100.355 14.1373 100.657 14.0609 101.035 13.9083C101.413 13.7556 101.64 13.6793 101.715 13.6793C101.942 13.6793 102.169 13.7556 102.395 13.8319C102.622 13.9846 102.773 14.1373 102.924 14.3663C103.076 14.5952 103.076 14.8242 103.076 15.0532C103.076 15.5112 102.849 15.9692 102.395 16.2745C101.942 16.5798 101.413 16.8088 100.809 16.9615C100.204 17.1142 99.675 17.1905 99.2216 17.1905C98.1636 17.1905 97.1812 16.8852 96.35 16.3508C95.5187 15.8165 94.8386 15.0532 94.3852 14.1373C93.9318 13.2213 93.7051 12.229 93.7051 11.084C93.7051 10.3207 93.8562 9.5574 94.0829 8.79409C94.3852 8.03078 94.763 7.42013 95.2164 6.80948C95.7454 6.19884 96.35 5.74085 97.0301 5.43552C97.7102 5.1302 98.4659 4.97754 99.2972 4.97754C99.7506 4.97754 100.355 5.05387 100.96 5.20653C101.564 5.3592 102.093 5.58819 102.547 5.81718C102.924 6.19883 103.151 6.58049 103.151 7.03847Z" fill="#ED7221"/>
    <path d="M104.437 15.359V1.84839C104.437 1.31407 104.588 0.932413 104.89 0.550758C105.192 0.245434 105.57 0.0927734 106.023 0.0927734C106.326 0.0927734 106.628 0.169107 106.855 0.321769C107.081 0.47443 107.308 0.70342 107.384 0.932413C107.535 1.23774 107.61 1.46673 107.61 1.84839V15.359C107.61 15.6643 107.535 15.9696 107.384 16.2749C107.233 16.5803 107.081 16.7329 106.855 16.8856C106.628 17.0382 106.326 17.1146 106.023 17.1146C105.57 17.1146 105.192 16.9619 104.89 16.6566C104.588 16.2749 104.437 15.8933 104.437 15.359Z" fill="#ED7221"/>
    <path d="M109.499 12.6875V6.96264C109.499 6.42832 109.65 6.04667 109.952 5.66502C110.255 5.28336 110.633 5.20703 111.086 5.20703C111.388 5.20703 111.691 5.28336 111.917 5.43602C112.144 5.58868 112.371 5.81768 112.446 6.04667C112.597 6.35199 112.673 6.65732 112.673 6.96264V12.6111C112.673 13.2218 112.9 13.7561 113.277 14.0614C113.655 14.4431 114.184 14.5957 114.713 14.5957C115.091 14.5957 115.393 14.5194 115.696 14.3667C115.998 14.2141 116.225 13.9851 116.451 13.6798C116.602 13.3744 116.754 12.9928 116.754 12.6111V6.96264C116.754 6.42832 116.905 6.04667 117.207 5.66502C117.509 5.35969 117.887 5.20703 118.341 5.20703C118.643 5.20703 118.945 5.28336 119.172 5.43602C119.398 5.58868 119.625 5.81768 119.701 6.04667C119.852 6.35199 119.927 6.65732 119.927 6.96264V12.6875C119.927 13.6034 119.701 14.4431 119.323 15.1301C118.945 15.817 118.341 16.3513 117.585 16.733C116.829 17.1147 115.847 17.2673 114.789 17.2673C113.126 17.2673 111.917 16.8857 111.01 16.046C109.952 15.2064 109.499 14.0614 109.499 12.6875Z" fill="#ED7221"/>
    <path d="M121.815 15.359V1.84839C121.815 1.31407 121.967 0.932412 122.269 0.550758C122.571 0.245434 122.949 0.0927734 123.402 0.0927734C123.705 0.0927734 124.007 0.169107 124.234 0.321769C124.46 0.47443 124.687 0.70342 124.763 0.932412C124.914 1.23774 124.989 1.46673 124.989 1.84839V6.12292C125.367 5.74126 125.821 5.51227 126.35 5.28328C126.879 5.13062 127.407 4.97795 127.936 4.97795C128.994 4.97795 129.901 5.28327 130.657 5.89392C131.413 6.50457 132.017 7.26788 132.395 8.18385C132.773 9.17615 133 10.1685 133 11.2371C133 12.2294 132.773 13.2217 132.395 14.1377C131.942 15.0536 131.337 15.8169 130.581 16.3513C129.826 16.8856 128.919 17.1909 127.936 17.1909C127.332 17.1909 126.803 17.0382 126.274 16.8092C125.745 16.5803 125.367 16.1986 125.065 15.7406C124.838 16.5803 124.309 17.0382 123.478 17.0382C123.025 17.0382 122.647 16.8856 122.344 16.5802C121.891 16.2749 121.815 15.8933 121.815 15.359ZM124.914 11.0844C124.914 11.9241 125.14 12.6874 125.518 13.3744C125.972 14.0613 126.576 14.3667 127.332 14.3667C127.861 14.3667 128.314 14.214 128.692 13.9087C129.07 13.6033 129.372 13.2217 129.523 12.6874C129.675 12.2294 129.826 11.6951 129.826 11.1608C129.826 10.6264 129.75 10.0921 129.523 9.63414C129.297 9.17615 129.07 8.71817 128.692 8.41284C128.314 8.10752 127.861 7.95486 127.332 7.95486C126.803 7.95486 126.35 8.10752 125.972 8.41284C125.594 8.71817 125.292 9.09982 125.14 9.55781C124.989 10.0158 124.914 10.5501 124.914 11.0844Z" fill="#ED7221"/>
</svg>
